<?xml version="1.0" encoding="utf-8"?>
<!-- Generator: Adobe Illustrator 18.0.0, SVG Export Plug-In . SVG Version: 6.00 Build 0)  -->
<!DOCTYPE svg PUBLIC "-//W3C//DTD SVG 1.1//EN" "http://www.w3.org/Graphics/SVG/1.1/DTD/svg11.dtd" [
	<!ENTITY ns_extend "http://ns.adobe.com/Extensibility/1.0/">
	<!ENTITY ns_ai "http://ns.adobe.com/AdobeIllustrator/10.0/">
	<!ENTITY ns_graphs "http://ns.adobe.com/Graphs/1.0/">
	<!ENTITY ns_vars "http://ns.adobe.com/Variables/1.0/">
	<!ENTITY ns_imrep "http://ns.adobe.com/ImageReplacement/1.0/">
	<!ENTITY ns_sfw "http://ns.adobe.com/SaveForWeb/1.0/">
	<!ENTITY ns_custom "http://ns.adobe.com/GenericCustomNamespace/1.0/">
	<!ENTITY ns_adobe_xpath "http://ns.adobe.com/XPath/1.0/">
]>
<svg version="1.1" id="Layer_1" xmlns:x="&ns_extend;" xmlns:i="&ns_ai;" xmlns:graph="&ns_graphs;"
	 xmlns="http://www.w3.org/2000/svg" xmlns:xlink="http://www.w3.org/1999/xlink" x="0px" y="0px" width="864px" height="864px"
	 viewBox="0 0 864 864" enable-background="new 0 0 864 864" xml:space="preserve">
<metadata>
	<sfw  xmlns="&ns_sfw;">
		<slices></slices>
		<sliceSourceBounds  height="904" width="864" bottomLeftOrigin="true" x="0" y="-40"></sliceSourceBounds>
	</sfw>
</metadata>
<g>
	<g>
		<rect fill="#26231E" width="864" height="864"/>
		<rect x="144" y="144" fill="#8C806F" width="576" height="288"/>
		<rect x="144" y="468" fill="#8C806F" width="576" height="288"/>
	</g>
	<g>
		<rect x="37" y="153" fill="none" width="92" height="751"/>
		<text transform="matrix(1 0 0 1 71.4009 169.9748)" fill="#B56B00" font-family="'SourceCodePro-Semibold'" font-size="24">e000</text>
		<text transform="matrix(1 0 0 1 71.4009 205.9748)" fill="#B56B00" font-family="'SourceCodePro-Semibold'" font-size="24">e010</text>
		<text transform="matrix(1 0 0 1 71.4009 241.9748)" fill="#B56B00" font-family="'SourceCodePro-Semibold'" font-size="24">e020</text>
		<text transform="matrix(1 0 0 1 71.4009 277.9748)" fill="#B56B00" font-family="'SourceCodePro-Semibold'" font-size="24">e030</text>
		<text transform="matrix(1 0 0 1 71.4009 313.9748)" fill="#B56B00" font-family="'SourceCodePro-Semibold'" font-size="24">e040</text>
		<text transform="matrix(1 0 0 1 71.4009 349.9748)" fill="#B56B00" font-family="'SourceCodePro-Semibold'" font-size="24">e050</text>
		<text transform="matrix(1 0 0 1 71.4009 385.9748)" fill="#B56B00" font-family="'SourceCodePro-Semibold'" font-size="24">e060</text>
		<text transform="matrix(1 0 0 1 71.4009 421.9748)" fill="#B56B00" font-family="'SourceCodePro-Semibold'" font-size="24">e070</text>
		<text transform="matrix(1 0 0 1 71.4009 493.9743)" fill="#B56B00" font-family="'SourceCodePro-Semibold'" font-size="24">e080</text>
		<text transform="matrix(1 0 0 1 71.4009 529.9743)" fill="#B56B00" font-family="'SourceCodePro-Semibold'" font-size="24">e090</text>
		<text transform="matrix(1 0 0 1 71.4009 565.9743)" fill="#B56B00" font-family="'SourceCodePro-Semibold'" font-size="24">e0a0</text>
		<text transform="matrix(1 0 0 1 71.4009 601.9743)" fill="#B56B00" font-family="'SourceCodePro-Semibold'" font-size="24">e0b0</text>
		<text transform="matrix(1 0 0 1 71.4009 637.9743)" fill="#B56B00" font-family="'SourceCodePro-Semibold'" font-size="24">e0c0</text>
		<text transform="matrix(1 0 0 1 71.4009 673.9743)" fill="#B56B00" font-family="'SourceCodePro-Semibold'" font-size="24">e0d0</text>
		<text transform="matrix(1 0 0 1 71.4009 709.9743)" fill="#B56B00" font-family="'SourceCodePro-Semibold'" font-size="24">e0e0</text>
		<text transform="matrix(1 0 0 1 71.4009 745.9743)" fill="#B56B00" font-family="'SourceCodePro-Semibold'" font-size="24">e0f0</text>
		<g>
			<g>
				<path fill="#B56B00" d="M157.4,126.2c0-5.2,2.2-7.8,5.7-7.8s5.7,2.7,5.7,7.8c0,5.1-2.2,8-5.7,8S157.4,131.4,157.4,126.2z
					 M159.9,126.2c0,4.2,1.3,5.8,3.2,5.8s3.2-1.7,3.2-5.8s-1.3-5.7-3.2-5.7S159.9,122.1,159.9,126.2z M161.4,126.1
					c0-1.1,0.7-1.7,1.7-1.7s1.7,0.6,1.7,1.7s-0.7,1.7-1.7,1.7S161.4,127.2,161.4,126.1z"/>
				<path fill="#B56B00" d="M204.6,131.7v2.3H194v-2.3h4.1v-10H195v-1.7c1.7-0.3,2.9-0.7,3.9-1.2h2v13L204.6,131.7L204.6,131.7z"/>
				<path fill="#B56B00" d="M229.4,132.3c4.8-4.1,7.7-6.7,7.7-9.1c0-1.6-1-2.6-2.9-2.6c-1.3,0-2.4,0.8-3.4,1.7l-1.5-1.5
					c1.5-1.5,3-2.4,5.2-2.4c3.1,0,5.2,1.8,5.2,4.7c0,2.7-2.8,5.5-6.3,8.7c0.9-0.1,1.9-0.2,2.8-0.2h4.3v2.4h-11.1V132.3z"/>
				<path fill="#B56B00" d="M266.3,130.3c1,0.9,2.4,1.7,4.1,1.7c1.9,0,3.3-0.9,3.3-2.3c0-1.6-1.3-2.6-5.1-2.6v-2
					c3.3,0,4.5-1,4.5-2.4c0-1.3-1.1-2-2.7-2c-1.3,0-2.5,0.6-3.5,1.4l-1.4-1.7c1.4-1.2,3.1-1.9,5-1.9c3.1,0,5.4,1.4,5.4,4
					c0,1.7-1.2,2.9-3.1,3.5v0.1c2,0.5,3.6,1.8,3.6,3.8c0,2.8-2.7,4.4-5.8,4.4c-2.6,0-4.5-1-5.6-2.2L266.3,130.3z"/>
				<path fill="#B56B00" d="M313.1,130h-2.2v3.9h-2.6V130h-7.6v-1.9l7-9.5h3.2v9.2h2.2V130z M308.3,127.9v-3.6c0-0.9,0.1-2.1,0.1-3
					h-0.1c-0.5,0.8-1.1,1.6-1.6,2.4l-3.2,4.2C303.5,127.9,308.3,127.9,308.3,127.9z"/>
				<path fill="#B56B00" d="M338.3,130.3c1,0.9,2.2,1.6,4,1.6c1.9,0,3.4-1.1,3.4-2.9c0-1.8-1.3-2.9-3.3-2.9c-1.1,0-1.8,0.3-2.8,0.9
					l-1.3-0.8l0.5-7.5h9v2.3h-6.6l-0.3,3.7c0.8-0.3,1.5-0.5,2.4-0.5c2.9,0,5.3,1.5,5.3,4.8c0,3.3-2.8,5.3-5.8,5.3
					c-2.7,0-4.4-1-5.6-2.1L338.3,130.3z"/>
				<path fill="#B56B00" d="M383,121.8c-0.7-0.7-1.8-1.2-2.9-1.2c-2.2,0-4,1.4-4.2,5.7c1.2-1.2,2.7-1.8,4-1.8c2.7,0,4.8,1.5,4.8,4.7
					c0,3-2.5,5-5.3,5c-3.2,0-6-2.3-6-7.5c0-5.9,3.1-8.4,6.5-8.4c2,0,3.5,0.8,4.6,1.7L383,121.8z M382.2,129.2c0-1.8-1-2.7-2.8-2.7
					c-1,0-2.2,0.5-3.3,1.8c0.3,2.7,1.6,3.8,3.3,3.8C380.9,132.1,382.2,131.1,382.2,129.2z"/>
				<path fill="#B56B00" d="M417.6,121h-8.2v-2.3h11.3v1.7c-4,4.4-4.8,7.6-5,13.6h-2.8C413.1,128.5,414.2,125.2,417.6,121z"/>
				<path fill="#B56B00" d="M448.4,126.1L448.4,126.1c-1.3-0.9-2.3-2.1-2.3-3.7c0-2.5,2.1-4.1,4.9-4.1c3,0,4.9,1.7,4.9,4.1
					c0,1.4-1,2.7-2.3,3.5v0.1c1.7,0.8,3,1.9,3,4c0,2.4-2,4.2-5.6,4.2c-3.5,0-5.7-1.7-5.7-4.2C445.3,128,446.8,126.9,448.4,126.1z
					 M451,132.3c1.8,0,3-0.9,3-2.3c0-1.8-1.8-2.3-4.2-3.1c-1.2,0.7-2,1.6-2,2.9C447.7,131.3,449.1,132.3,451,132.3z M453.6,122.7
					c0-1.3-0.9-2.3-2.6-2.3c-1.4,0-2.4,0.8-2.4,2.1c0,1.5,1.5,2.2,3.6,2.9C453.1,124.5,453.6,123.6,453.6,122.7z"/>
				<path fill="#B56B00" d="M482.9,130.8c0.7,0.7,1.8,1.2,2.9,1.2c2.1,0,4-1.4,4.2-5.7c-1.2,1.1-2.7,1.8-4,1.8
					c-2.8,0-4.8-1.5-4.8-4.7c0-3,2.5-5,5.3-5c3.2,0,6,2.3,6,7.4c0,5.9-3.1,8.4-6.5,8.4c-2,0-3.6-0.8-4.6-1.7L482.9,130.8z
					 M489.8,124.3c-0.3-2.7-1.6-3.8-3.3-3.8c-1.5,0-2.8,1-2.8,2.9c0,1.8,1,2.7,2.8,2.7C487.5,126.1,488.7,125.6,489.8,124.3z"/>
				<path fill="#B56B00" d="M525.5,126.4c-0.1-1.3-0.9-2.3-2.8-2.3c-1.3,0-2.6,0.6-3.9,1.2l-1-1.8c1.4-0.8,3.4-1.6,5.4-1.6
					c3.3,0,5.1,1.8,5.1,5.1v7H526l-0.2-1.5h-0.1c-1.2,1-2.8,1.8-4.4,1.8c-2.3,0-3.9-1.4-3.9-3.5
					C517.4,128.1,519.7,126.8,525.5,126.4z M522.2,132.1c1.2,0,2.3-0.6,3.4-1.4v-2.5c-4.2,0.3-5.5,1.2-5.5,2.4
					C520.1,131.6,521,132.1,522.2,132.1z"/>
				<path fill="#B56B00" d="M553.6,117h2.8v4.4l-0.1,2.1c1-1,2.4-1.6,3.6-1.6c3,0,4.8,2.4,4.8,6c0,4.1-2.5,6.4-5.2,6.4
					c-1.1,0-2.4-0.6-3.4-1.6h-0.1l-0.2,1.3h-2.2V117z M559,132c1.7,0,2.9-1.4,2.9-4.1c0-2.4-0.8-3.7-2.7-3.7c-0.9,0-1.8,0.4-2.8,1.4
					v5.3C557.3,131.7,558.3,132,559,132z"/>
				<path fill="#B56B00" d="M596.1,121.9c1.9,0,3.4,0.7,4.4,1.7l-1.3,1.7c-0.9-0.7-1.8-1.1-2.9-1.1c-2.4,0-4,1.6-4,3.9
					c0,2.4,1.6,3.9,3.9,3.9c1.3,0,2.4-0.6,3.4-1.3l1.2,1.8c-1.3,1.2-3.1,1.8-4.8,1.8c-3.7,0-6.5-2.3-6.5-6.2
					C589.4,124.1,592.5,121.9,596.1,121.9z"/>
				<path fill="#B56B00" d="M630.1,121.9c1.4,0,2.3,0.5,3.3,1.4l-0.1-2V117h2.8v16.9h-2.3l-0.2-1.4h-0.1c-0.9,0.9-2.2,1.7-3.6,1.7
					c-3,0-5-2.3-5-6.2C624.9,124.2,627.4,121.9,630.1,121.9z M630.6,132c1,0,1.8-0.5,2.7-1.4v-5.3c-0.8-0.8-1.7-1.1-2.5-1.1
					c-1.6,0-3,1.4-3,3.9C627.8,130.6,628.8,132,630.6,132z"/>
				<path fill="#B56B00" d="M667.2,121.9c3.5,0,5.5,2.3,5.5,5.6c0,0.5-0.1,1.1-0.1,1.3h-8.6c0.2,2.1,1.8,3.3,4,3.3
					c1.2,0,2.2-0.4,3.3-1l0.9,1.7c-1.3,0.8-2.9,1.4-4.6,1.4c-3.6,0-6.4-2.3-6.4-6.2C661.1,124.2,664.1,121.9,667.2,121.9z
					 M670.1,126.9c0-1.8-1-2.9-2.9-2.9c-1.6,0-3,1-3.3,2.9H670.1z"/>
				<path fill="#B56B00" d="M709,119.4c-0.9-0.3-1.6-0.5-2.6-0.5c-1.8,0-2.6,0.9-2.6,2.6v0.7h4.5v2.2h-4.5v9.6h-2.7v-9.6h-3.3v-2.1
					l3.3-0.1v-0.6c0-2.8,1.5-4.8,5-4.8c1.3,0,2.4,0.2,3.5,0.6L709,119.4z"/>
			</g>
			<g>
				<path fill="#B56B00" d="M157.4,450c0-5.2,2.2-7.8,5.7-7.8s5.7,2.7,5.7,7.8c0,5.1-2.2,8-5.7,8S157.4,455.2,157.4,450z M159.9,450
					c0,4.2,1.3,5.8,3.2,5.8s3.2-1.7,3.2-5.8s-1.3-5.7-3.2-5.7S159.9,445.8,159.9,450z M161.4,449.9c0-1.1,0.7-1.7,1.7-1.7
					s1.7,0.6,1.7,1.7s-0.7,1.7-1.7,1.7S161.4,451,161.4,449.9z"/>
				<path fill="#B56B00" d="M204.6,455.5v2.3H194v-2.3h4.1v-10H195v-1.7c1.7-0.3,2.9-0.7,3.9-1.2h2v13H204.6z"/>
				<path fill="#B56B00" d="M229.4,456.1c4.8-4.1,7.7-6.7,7.7-9.1c0-1.6-1-2.6-2.9-2.6c-1.3,0-2.4,0.8-3.4,1.7l-1.5-1.5
					c1.5-1.5,3-2.4,5.2-2.4c3.1,0,5.2,1.8,5.2,4.7c0,2.7-2.8,5.5-6.3,8.7c0.9-0.1,1.9-0.2,2.8-0.2h4.3v2.4h-11.1V456.1z"/>
				<path fill="#B56B00" d="M266.3,454.1c1,0.9,2.4,1.7,4.1,1.7c1.9,0,3.3-0.9,3.3-2.3c0-1.6-1.3-2.6-5.1-2.6v-2
					c3.3,0,4.5-1,4.5-2.4c0-1.3-1.1-2-2.7-2c-1.3,0-2.5,0.6-3.5,1.4l-1.4-1.7c1.4-1.2,3.1-1.9,5-1.9c3.1,0,5.4,1.4,5.4,4
					c0,1.7-1.2,2.9-3.1,3.5v0.1c2,0.5,3.6,1.8,3.6,3.8c0,2.8-2.7,4.4-5.8,4.4c-2.6,0-4.5-1-5.6-2.2L266.3,454.1z"/>
				<path fill="#B56B00" d="M313.1,453.8h-2.2v3.9h-2.6v-3.9h-7.6v-1.9l7-9.5h3.2v9.2h2.2V453.8z M308.3,451.6V448
					c0-0.9,0.1-2.1,0.1-3h-0.1c-0.5,0.8-1.1,1.6-1.6,2.4l-3.2,4.2H308.3z"/>
				<path fill="#B56B00" d="M338.3,454.1c1,0.9,2.2,1.6,4,1.6c1.9,0,3.4-1.1,3.4-2.9c0-1.8-1.3-2.9-3.3-2.9c-1.1,0-1.8,0.3-2.8,0.9
					l-1.3-0.8l0.5-7.5h9v2.3h-6.6l-0.3,3.7c0.8-0.3,1.5-0.5,2.4-0.5c2.9,0,5.3,1.5,5.3,4.8c0,3.3-2.8,5.3-5.8,5.3
					c-2.7,0-4.4-1-5.6-2.1L338.3,454.1z"/>
				<path fill="#B56B00" d="M383,445.6c-0.7-0.7-1.8-1.2-2.9-1.2c-2.2,0-4,1.4-4.2,5.7c1.2-1.2,2.7-1.8,4-1.8c2.7,0,4.8,1.5,4.8,4.7
					c0,3-2.5,5-5.3,5c-3.2,0-6-2.3-6-7.5c0-5.9,3.1-8.4,6.5-8.4c2,0,3.5,0.8,4.6,1.7L383,445.6z M382.2,453c0-1.8-1-2.7-2.8-2.7
					c-1,0-2.2,0.5-3.3,1.8c0.3,2.7,1.6,3.8,3.3,3.8C380.9,455.9,382.2,454.9,382.2,453z"/>
				<path fill="#B56B00" d="M417.6,444.8h-8.2v-2.3h11.3v1.7c-4,4.4-4.8,7.6-5,13.6h-2.8C413.1,452.3,414.2,448.9,417.6,444.8z"/>
				<path fill="#B56B00" d="M448.4,449.9L448.4,449.9c-1.3-0.9-2.3-2.1-2.3-3.7c0-2.5,2.1-4.1,4.9-4.1c3,0,4.9,1.7,4.9,4.1
					c0,1.4-1,2.7-2.3,3.5v0.1c1.7,0.8,3,1.9,3,4c0,2.4-2,4.2-5.6,4.2c-3.5,0-5.7-1.7-5.7-4.2C445.3,451.8,446.8,450.7,448.4,449.9z
					 M451,456c1.8,0,3-0.9,3-2.3c0-1.8-1.8-2.3-4.2-3.1c-1.2,0.7-2,1.6-2,2.9C447.7,455,449.1,456,451,456z M453.6,446.5
					c0-1.3-0.9-2.3-2.6-2.3c-1.4,0-2.4,0.8-2.4,2.1c0,1.5,1.5,2.2,3.6,2.9C453.1,448.3,453.6,447.4,453.6,446.5z"/>
				<path fill="#B56B00" d="M482.9,454.6c0.7,0.7,1.8,1.2,2.9,1.2c2.1,0,4-1.4,4.2-5.7c-1.2,1.1-2.7,1.8-4,1.8
					c-2.8,0-4.8-1.5-4.8-4.7c0-3,2.5-5,5.3-5c3.2,0,6,2.3,6,7.4c0,5.9-3.1,8.4-6.5,8.4c-2,0-3.6-0.8-4.6-1.7L482.9,454.6z
					 M489.8,448.1c-0.3-2.7-1.6-3.8-3.3-3.8c-1.5,0-2.8,1-2.8,2.9c0,1.8,1,2.7,2.8,2.7C487.5,449.9,488.7,449.4,489.8,448.1z"/>
				<path fill="#B56B00" d="M525.5,450.2c-0.1-1.3-0.9-2.3-2.8-2.3c-1.3,0-2.6,0.6-3.9,1.2l-1-1.8c1.4-0.8,3.4-1.6,5.4-1.6
					c3.3,0,5.1,1.8,5.1,5.1v7H526l-0.2-1.5h-0.1c-1.2,1-2.8,1.8-4.4,1.8c-2.3,0-3.9-1.4-3.9-3.5
					C517.4,451.9,519.7,450.6,525.5,450.2z M522.2,455.8c1.2,0,2.3-0.6,3.4-1.4v-2.5c-4.2,0.3-5.5,1.2-5.5,2.4
					C520.1,455.4,521,455.8,522.2,455.8z"/>
				<path fill="#B56B00" d="M553.6,440.8h2.8v4.4l-0.1,2.1c1-1,2.4-1.6,3.6-1.6c3,0,4.8,2.4,4.8,6c0,4.1-2.5,6.4-5.2,6.4
					c-1.1,0-2.4-0.6-3.4-1.6h-0.1l-0.2,1.3h-2.2V440.8z M559,455.7c1.7,0,2.9-1.4,2.9-4.1c0-2.4-0.8-3.7-2.7-3.7
					c-0.9,0-1.8,0.4-2.8,1.4v5.3C557.3,455.4,558.3,455.7,559,455.7z"/>
				<path fill="#B56B00" d="M596.1,445.6c1.9,0,3.4,0.7,4.4,1.7l-1.3,1.7c-0.9-0.7-1.8-1.1-2.9-1.1c-2.4,0-4,1.6-4,3.9
					c0,2.4,1.6,3.9,3.9,3.9c1.3,0,2.4-0.6,3.4-1.3l1.2,1.8c-1.3,1.2-3.1,1.8-4.8,1.8c-3.7,0-6.5-2.3-6.5-6.2
					C589.4,447.9,592.5,445.6,596.1,445.6z"/>
				<path fill="#B56B00" d="M630.1,445.6c1.4,0,2.3,0.5,3.3,1.4l-0.1-2v-4.3h2.8v16.9h-2.3l-0.2-1.4h-0.1c-0.9,0.9-2.2,1.7-3.6,1.7
					c-3,0-5-2.3-5-6.2C624.9,448,627.4,445.6,630.1,445.6z M630.6,455.7c1,0,1.8-0.5,2.7-1.4V449c-0.8-0.8-1.7-1.1-2.5-1.1
					c-1.6,0-3,1.4-3,3.9C627.8,454.4,628.8,455.7,630.6,455.7z"/>
				<path fill="#B56B00" d="M667.2,445.6c3.5,0,5.5,2.3,5.5,5.6c0,0.5-0.1,1.1-0.1,1.3h-8.6c0.2,2.1,1.8,3.3,4,3.3
					c1.2,0,2.2-0.4,3.3-1l0.9,1.7c-1.3,0.8-2.9,1.4-4.6,1.4c-3.6,0-6.4-2.3-6.4-6.2C661.1,448,664.1,445.6,667.2,445.6z
					 M670.1,450.7c0-1.8-1-2.9-2.9-2.9c-1.6,0-3,1-3.3,2.9H670.1z"/>
				<path fill="#B56B00" d="M709,443.2c-0.9-0.3-1.6-0.5-2.6-0.5c-1.8,0-2.6,0.9-2.6,2.6v0.7h4.5v2.2h-4.5v9.6h-2.7v-9.6h-3.3v-2.1
					l3.3-0.1v-0.6c0-2.8,1.5-4.8,5-4.8c1.3,0,2.4,0.2,3.5,0.6L709,443.2z"/>
			</g>
			<g>
				<path fill="#B56B00" d="M157.4,771.3c0-5.2,2.2-7.8,5.7-7.8s5.7,2.7,5.7,7.8c0,5.1-2.2,8-5.7,8S157.4,776.5,157.4,771.3z
					 M159.9,771.3c0,4.2,1.3,5.8,3.2,5.8s3.2-1.7,3.2-5.8s-1.3-5.7-3.2-5.7S159.9,767.2,159.9,771.3z M161.4,771.2
					c0-1.1,0.7-1.7,1.7-1.7s1.7,0.6,1.7,1.7s-0.7,1.7-1.7,1.7S161.4,772.3,161.4,771.2z"/>
				<path fill="#B56B00" d="M204.6,776.8v2.3H194v-2.3h4.1v-10H195V765c1.7-0.3,2.9-0.7,3.9-1.2h2v13H204.6z"/>
				<path fill="#B56B00" d="M229.4,777.4c4.8-4.1,7.7-6.7,7.7-9.1c0-1.6-1-2.6-2.9-2.6c-1.3,0-2.4,0.8-3.4,1.7l-1.5-1.5
					c1.5-1.5,3-2.4,5.2-2.4c3.1,0,5.2,1.8,5.2,4.7c0,2.7-2.8,5.5-6.3,8.7c0.9-0.1,1.9-0.2,2.8-0.2h4.3v2.4h-11.1V777.4z"/>
				<path fill="#B56B00" d="M266.3,775.4c1,0.9,2.4,1.7,4.1,1.7c1.9,0,3.3-0.9,3.3-2.3c0-1.6-1.3-2.6-5.1-2.6v-2
					c3.3,0,4.5-1,4.5-2.4c0-1.3-1.1-2-2.7-2c-1.3,0-2.5,0.6-3.5,1.4l-1.4-1.7c1.4-1.2,3.1-1.9,5-1.9c3.1,0,5.4,1.4,5.4,4
					c0,1.7-1.2,2.9-3.1,3.5v0.1c2,0.5,3.6,1.8,3.6,3.8c0,2.8-2.7,4.4-5.8,4.4c-2.6,0-4.5-1-5.6-2.2L266.3,775.4z"/>
				<path fill="#B56B00" d="M313.1,775.1h-2.2v3.9h-2.6v-3.9h-7.6v-1.9l7-9.5h3.2v9.2h2.2V775.1z M308.3,773v-3.6
					c0-0.9,0.1-2.1,0.1-3h-0.1c-0.5,0.8-1.1,1.6-1.6,2.4l-3.2,4.2H308.3z"/>
				<path fill="#B56B00" d="M338.3,775.4c1,0.9,2.2,1.6,4,1.6c1.9,0,3.4-1.1,3.4-2.9c0-1.8-1.3-2.9-3.3-2.9c-1.1,0-1.8,0.3-2.8,0.9
					l-1.3-0.8l0.5-7.5h9v2.3h-6.6l-0.3,3.7c0.8-0.3,1.5-0.5,2.4-0.5c2.9,0,5.3,1.5,5.3,4.8c0,3.3-2.8,5.3-5.8,5.3
					c-2.7,0-4.4-1-5.6-2.1L338.3,775.4z"/>
				<path fill="#B56B00" d="M383,766.9c-0.7-0.7-1.8-1.2-2.9-1.2c-2.2,0-4,1.4-4.2,5.7c1.2-1.2,2.7-1.8,4-1.8c2.7,0,4.8,1.5,4.8,4.7
					c0,3-2.5,5-5.3,5c-3.2,0-6-2.3-6-7.5c0-5.9,3.1-8.4,6.5-8.4c2,0,3.5,0.8,4.6,1.7L383,766.9z M382.2,774.3c0-1.8-1-2.7-2.8-2.7
					c-1,0-2.2,0.5-3.3,1.8c0.3,2.7,1.6,3.8,3.3,3.8C380.9,777.2,382.2,776.2,382.2,774.3z"/>
				<path fill="#B56B00" d="M417.6,766.1h-8.2v-2.3h11.3v1.7c-4,4.4-4.8,7.6-5,13.6h-2.8C413.1,773.6,414.2,770.3,417.6,766.1z"/>
				<path fill="#B56B00" d="M448.4,771.2L448.4,771.2c-1.3-0.9-2.3-2.1-2.3-3.7c0-2.5,2.1-4.1,4.9-4.1c3,0,4.9,1.7,4.9,4.1
					c0,1.4-1,2.7-2.3,3.5v0.1c1.7,0.8,3,1.9,3,4c0,2.4-2,4.2-5.6,4.2c-3.5,0-5.7-1.7-5.7-4.2C445.3,773.1,446.8,772,448.4,771.2z
					 M451,777.4c1.8,0,3-0.9,3-2.3c0-1.8-1.8-2.3-4.2-3.1c-1.2,0.7-2,1.6-2,2.9C447.7,776.4,449.1,777.4,451,777.4z M453.6,767.8
					c0-1.3-0.9-2.3-2.6-2.3c-1.4,0-2.4,0.8-2.4,2.1c0,1.5,1.5,2.2,3.6,2.9C453.1,769.6,453.6,768.8,453.6,767.8z"/>
				<path fill="#B56B00" d="M482.9,775.9c0.7,0.7,1.8,1.2,2.9,1.2c2.1,0,4-1.4,4.2-5.7c-1.2,1.1-2.7,1.8-4,1.8
					c-2.8,0-4.8-1.5-4.8-4.7c0-3,2.5-5,5.3-5c3.2,0,6,2.3,6,7.4c0,5.9-3.1,8.4-6.5,8.4c-2,0-3.6-0.8-4.6-1.7L482.9,775.9z
					 M489.8,769.4c-0.3-2.7-1.6-3.8-3.3-3.8c-1.5,0-2.8,1-2.8,2.9c0,1.8,1,2.7,2.8,2.7C487.5,771.2,488.7,770.7,489.8,769.4z"/>
				<path fill="#B56B00" d="M525.5,771.5c-0.1-1.3-0.9-2.3-2.8-2.3c-1.3,0-2.6,0.6-3.9,1.2l-1-1.8c1.4-0.8,3.4-1.6,5.4-1.6
					c3.3,0,5.1,1.8,5.1,5.1v7H526l-0.2-1.5h-0.1c-1.2,1-2.8,1.8-4.4,1.8c-2.3,0-3.9-1.4-3.9-3.5
					C517.4,773.2,519.7,771.9,525.5,771.5z M522.2,777.2c1.2,0,2.3-0.6,3.4-1.4v-2.5c-4.2,0.3-5.5,1.2-5.5,2.4
					C520.1,776.7,521,777.2,522.2,777.2z"/>
				<path fill="#B56B00" d="M553.6,762.1h2.8v4.4l-0.1,2.1c1-1,2.4-1.6,3.6-1.6c3,0,4.8,2.4,4.8,6c0,4.1-2.5,6.4-5.2,6.4
					c-1.1,0-2.4-0.6-3.4-1.6h-0.1l-0.2,1.3h-2.2V762.1z M559,777.1c1.7,0,2.9-1.4,2.9-4.1c0-2.4-0.8-3.7-2.7-3.7
					c-0.9,0-1.8,0.4-2.8,1.4v5.3C557.3,776.8,558.3,777.1,559,777.1z"/>
				<path fill="#B56B00" d="M596.1,767c1.9,0,3.4,0.7,4.4,1.7l-1.3,1.7c-0.9-0.7-1.8-1.1-2.9-1.1c-2.4,0-4,1.6-4,3.9
					c0,2.4,1.6,3.9,3.9,3.9c1.3,0,2.4-0.6,3.4-1.3l1.2,1.8c-1.3,1.2-3.1,1.8-4.8,1.8c-3.7,0-6.5-2.3-6.5-6.2
					C589.4,769.2,592.5,767,596.1,767z"/>
				<path fill="#B56B00" d="M630.1,767c1.4,0,2.3,0.5,3.3,1.4l-0.1-2v-4.3h2.8V779h-2.3l-0.2-1.4h-0.1c-0.9,0.9-2.2,1.7-3.6,1.7
					c-3,0-5-2.3-5-6.2C624.9,769.3,627.4,767,630.1,767z M630.6,777.1c1,0,1.8-0.5,2.7-1.4v-5.3c-0.8-0.8-1.7-1.1-2.5-1.1
					c-1.6,0-3,1.4-3,3.9C627.8,775.7,628.8,777.1,630.6,777.1z"/>
				<path fill="#B56B00" d="M667.2,767c3.5,0,5.5,2.3,5.5,5.6c0,0.5-0.1,1.1-0.1,1.3h-8.6c0.2,2.1,1.8,3.3,4,3.3
					c1.2,0,2.2-0.4,3.3-1l0.9,1.7c-1.3,0.8-2.9,1.4-4.6,1.4c-3.6,0-6.4-2.3-6.4-6.2C661.1,769.3,664.1,767,667.2,767z M670.1,772
					c0-1.8-1-2.9-2.9-2.9c-1.6,0-3,1-3.3,2.9H670.1z"/>
				<path fill="#B56B00" d="M709,764.5c-0.9-0.3-1.6-0.5-2.6-0.5c-1.8,0-2.6,0.9-2.6,2.6v0.7h4.5v2.2h-4.5v9.6h-2.7v-9.6h-3.3v-2.1
					l3.3-0.1v-0.6c0-2.8,1.5-4.8,5-4.8c1.3,0,2.4,0.2,3.5,0.6L709,764.5z"/>
			</g>
		</g>
	</g>
</g>
<rect x="222.4" y="219.7" fill="#010101" width="28.6" height="28.6"/>
<rect x="149.3" y="219.7" fill="none" stroke="#010101" stroke-width="0.4549" stroke-miterlimit="10" width="28.6" height="28.6"/>
<g>
	<polygon fill="#010101" points="214.5,232.9 214.5,230.9 197.2,248.2 199.2,248.2 	"/>
	<polygon fill="#010101" points="214.5,222.8 189,248.2 191,248.2 214.5,224.8 	"/>
	<polygon fill="#010101" points="214.5,247.3 213.6,248.2 214.5,248.2 	"/>
	<polygon fill="#010101" points="214.5,241.1 214.5,239.1 205.4,248.2 207.4,248.2 	"/>
	<polygon fill="#010101" points="185.8,245.2 211.2,219.8 209.2,219.8 185.8,243.3 	"/>
	<polygon fill="#010101" points="203,219.8 201.1,219.8 185.8,235.1 185.8,237.1 	"/>
	<polygon fill="#010101" points="194.9,219.8 192.9,219.8 185.8,226.9 185.8,228.9 	"/>
	<polygon fill="#010101" points="185.8,220.7 186.7,219.8 185.8,219.8 	"/>
</g>
<path fill="#010101" d="M270.3,249.6c-8.6,0-15.6-7-15.6-15.6c0-8.6,7-15.6,15.6-15.6c8.6,0,15.6,7,15.6,15.6
	C285.9,242.6,278.9,249.6,270.3,249.6z M270.3,219.9c-7.8,0-14.1,6.3-14.1,14.1c0,7.8,6.3,14.1,14.1,14.1c7.8,0,14.1-6.3,14.1-14.1
	C284.4,226.2,278.1,219.9,270.3,219.9z"/>
<path fill="#010101" d="M306.3,249.6c-8.6,0-15.6-7-15.6-15.6c0-8.6,7-15.6,15.6-15.6c8.6,0,15.6,7,15.6,15.6
	C321.9,242.6,314.9,249.6,306.3,249.6z"/>
<path fill="#010101" d="M342.3,321.6c-8.6,0-15.6-7-15.6-15.6c0-8.6,7-15.6,15.6-15.6c8.6,0,15.6,7,15.6,15.6
	C357.9,314.6,350.9,321.6,342.3,321.6z M342.3,291.9c-7.8,0-14.1,6.3-14.1,14.1c0,7.8,6.3,14.1,14.1,14.1c7.8,0,14.1-6.3,14.1-14.1
	C356.4,298.2,350.1,291.9,342.3,291.9z M342.3,314.1c-4.4,0-8.1-3.6-8.1-8.1c0-4.4,3.6-8.1,8.1-8.1s8.1,3.6,8.1,8.1
	C350.3,310.4,346.7,314.1,342.3,314.1z"/>
<path fill="#010101" d="M342.3,218.4c-8.6,0-15.6,7-15.6,15.6c0,8.6,7,15.6,15.6,15.6s15.6-7,15.6-15.6
	C357.9,225.4,350.9,218.4,342.3,218.4z M328.2,234c0-7.5,5.9-13.7,13.4-14.1v28.2C334.1,247.7,328.2,241.5,328.2,234z M343,248.1
	v-28.2c7.5,0.4,13.4,6.5,13.4,14.1C356.4,241.5,350.4,247.7,343,248.1z"/>
<path fill="#010101" d="M434.6,234c0,8.6,7,15.6,15.6,15.6c8.6,0,15.6-7,15.6-15.6c0-8.6-7-15.6-15.6-15.6
	C441.7,218.4,434.6,225.4,434.6,234z M450.3,248.1c-7.5,0-13.7-5.9-14.1-13.4h28.2C464,242.2,457.8,248.1,450.3,248.1z M464.4,233.3
	h-28.2c0.4-7.5,6.5-13.4,14.1-13.4C457.8,219.9,464,225.8,464.4,233.3z"/>
<path fill="#010101" d="M573.9,234c0-3-0.9-6-2.5-8.6c-1.6-2.5-3.9-4.5-6.6-5.7c-2.8-1.3-5.9-1.7-8.9-1.2c-2.9,0.4-5.7,1.7-7.9,3.7
	c-2.2,2-3.9,4.6-4.7,7.4c-0.9,2.9-0.8,6.1,0.1,9c0.9,2.8,2.6,5.4,4.9,7.3c2.3,1.9,5.1,3.1,8,3.5c3,0.4,6.1-0.1,8.8-1.4
	c2.7-1.3,4.9-3.3,6.5-5.8C573.1,239.8,573.9,236.9,573.9,234z M572.1,236.8c-0.6,3.2-2.4,6-4.8,8.1c-2.5,2.1-5.6,3.2-8.9,3.2
	c-3.3,0-6.6-1.1-9.1-3.2c-2.3-2-4-4.6-4.8-7.6c-0.7-3.1-0.4-6.4,0.9-9.3c1.3-2.8,3.6-5.2,6.4-6.6c1.8-0.9,3.7-1.4,5.7-1.5
	c0,0.9,0,1.7,0,2.6c0,1.8,0,3.6,0,5.3c0,1.5,0,3,0,4.6c0,0.3,0,0.6,0,0.9c0,0.2,0,0.5,0,0.7c0,0.2,0,0.4,0,0.6c0,0.1,0,0.1,0.1,0.1
	c0.9,0,1.7,0,2.6,0c1.6,0,3.2,0,4.8,0c1.7,0,3.5,0,5.2,0c0.7,0,1.4,0,2.1,0C572.3,235.4,572.3,236.1,572.1,236.8
	C572.1,236.9,572.1,236.8,572.1,236.8z M572.4,233.3c-0.9,0-1.7,0-2.6,0c-1.8,0-3.6,0-5.3,0c-1.5,0-3,0-4.6,0c-0.3,0-0.6,0-0.9,0
	c0,0,0-0.5,0-0.5c0-1.4,0-2.8,0-4.2c0-1.8,0-3.6,0-5.4c0-1.1,0-2.1,0-3.2c0,0,0,0,0-0.1c3,0.1,5.9,1.3,8.2,3.2
	c2.3,1.9,4,4.5,4.7,7.3C572.2,231.4,572.3,232.3,572.4,233.3z"/>
<path fill="#010101" d="M609.9,234c0-3-0.9-6-2.6-8.6c-1.6-2.5-3.9-4.5-6.6-5.7c-2.8-1.3-5.9-1.7-8.9-1.2c-2.9,0.4-5.7,1.7-7.9,3.7
	c-2.2,2-3.9,4.6-4.7,7.4c-0.9,2.9-0.8,6.1,0.1,9c0.9,2.8,2.6,5.4,4.9,7.3c2.3,1.9,5.1,3.1,8,3.5c3,0.4,6.1-0.1,8.8-1.4
	c2.7-1.3,4.9-3.3,6.5-5.8C609.1,239.8,609.9,236.9,609.9,234z M608.1,236.8c-0.6,3.2-2.4,6-4.8,8.1c-2.5,2.1-5.6,3.2-8.9,3.2
	c-3.3,0-6.6-1.1-9.1-3.2c-2.3-2-4-4.6-4.8-7.6c-0.7-3.1-0.4-6.4,0.9-9.3c1.3-2.8,3.6-5.2,6.4-6.6c1.8-0.9,3.7-1.4,5.7-1.5
	c0,0.9,0,1.7,0,2.6c0,1.8,0,3.6,0,5.3c0,1.5,0,3,0,4.6c0,0.3,0,0.6,0,0.9c0,0.2,0,0.5,0,0.7c0,0.2,0,0.4,0,0.6c0,0.1,0,0.1,0.1,0.1
	c0.9,0,1.7,0,2.6,0c1.6,0,3.2,0,4.8,0c1.7,0,3.5,0,5.2,0c0.7,0,1.4,0,2.1,0C608.3,235.4,608.3,236.1,608.1,236.8
	C608.1,236.9,608.1,236.8,608.1,236.8z"/>
<path fill="#010101" d="M378.3,218.4c-8.6,0-15.6,7-15.6,15.6c0,8.6,7,15.6,15.6,15.6c8.6,0,15.6-7,15.6-15.6
	C393.9,225.4,386.9,218.4,378.3,218.4z M378.3,248.1c-0.2,0-0.5,0-0.7,0v-28.2c0.2,0,0.5,0,0.7,0c7.8,0,14.1,6.3,14.1,14.1
	C392.4,241.8,386.1,248.1,378.3,248.1z"/>
<path fill="#010101" d="M398.6,234c0,8.6,7,15.6,15.6,15.6c8.6,0,15.6-7,15.6-15.6c0-8.6-7-15.6-15.6-15.6
	C405.7,218.4,398.6,225.4,398.6,234z M400.2,234c0-7.8,6.3-14.1,14.1-14.1c0.2,0,0.5,0,0.7,0v28.2c-0.2,0-0.5,0-0.7,0
	C406.5,248.1,400.2,241.8,400.2,234z"/>
<path fill="#010101" d="M501.9,234c0-8.6-7-15.6-15.6-15.6c-8.6,0-15.6,7-15.6,15.6c0,8.6,7,15.6,15.6,15.6
	C494.9,249.6,501.9,242.6,501.9,234z M472.2,234c0-0.2,0-0.5,0-0.7h28.2c0,0.2,0,0.5,0,0.7c0,7.8-6.3,14.1-14.1,14.1
	C478.5,248.1,472.2,241.8,472.2,234z"/>
<path fill="#010101" d="M522.3,218.4c-8.6,0-15.6,7-15.6,15.6c0,8.6,7,15.6,15.6,15.6c8.6,0,15.6-7,15.6-15.6
	C537.9,225.4,530.9,218.4,522.3,218.4z M522.3,219.9c7.8,0,14.1,6.3,14.1,14.1c0,0.2,0,0.5,0,0.7h-28.2c0-0.2,0-0.5,0-0.7
	C508.2,226.2,514.5,219.9,522.3,219.9z"/>
<path fill="#010101" d="M614.8,236c0.4,3,1.7,5.9,3.7,8.2c1.9,2.2,4.5,3.9,7.3,4.8c2.7,0.8,5.7,0.9,8.4,0.2c2.4-0.6,4.7-1.9,6.6-3.6
	c1.9-1.7,3.3-3.8,4.2-6.2c1-2.8,1.2-6,0.6-8.9c-0.6-2.5-1.8-4.8-3.4-6.8c-1.7-1.9-3.8-3.4-6.2-4.3c-1.8-0.7-3.7-1.1-5.7-1.1
	c-2.6,0-5.1,0.6-7.4,1.9c-2.2,1.2-4.1,2.9-5.5,5c-1.5,2.1-2.4,4.6-2.6,7.2C614.6,233.6,614.6,234.8,614.8,236
	C615.2,239.3,614.7,235.3,614.8,236z M630.3,219.9c3.2,0,6.3,1.1,8.8,3.1c2.1,1.7,3.7,4,4.6,6.6c0.4,1.3,0.7,2.7,0.7,4.1
	c0,0.1,0,1,0,1c0,0,0,0-0.1,0c-0.1,0-0.2,0-0.4,0c-1.3,0-2.6,0-3.8,0c-1.8,0-3.7,0-5.5,0c-1.4,0-2.8,0-4.3,0c-0.3,0-0.5,0-0.8,0
	c0,0,0-0.5,0-0.5c0-1.3,0-2.7,0-4c0-1.8,0-3.7,0-5.5c0-1.4,0-2.7,0-4.1c0-0.2,0-0.3,0-0.5c0,0,0-0.1,0-0.1
	C629.6,219.9,630.2,219.9,630.3,219.9z"/>
<path fill="#010101" d="M666.3,249.6c3,0,6-0.9,8.6-2.5c2.5-1.6,4.5-3.9,5.7-6.6c1.3-2.8,1.7-5.9,1.2-8.9c-0.4-2.9-1.7-5.7-3.7-7.9
	c-2-2.2-4.6-3.9-7.4-4.7c-2.9-0.9-6.1-0.8-9,0.1c-2.8,0.9-5.4,2.6-7.3,4.9c-1.9,2.3-3.1,5.1-3.5,8c-0.4,3,0.1,6.1,1.4,8.8
	c1.3,2.7,3.3,4.9,5.8,6.5C660.5,248.8,663.4,249.6,666.3,249.6z M663.5,247.8c-3.2-0.6-6-2.4-8.1-4.8c-2.1-2.5-3.2-5.6-3.2-8.9
	c0-3.3,1.1-6.6,3.2-9.1c2-2.3,4.6-4,7.6-4.8c3.1-0.7,6.4-0.4,9.3,0.9c2.8,1.3,5.2,3.6,6.6,6.4c0.9,1.8,1.4,3.7,1.5,5.7
	c-0.9,0-1.7,0-2.6,0c-1.8,0-3.6,0-5.3,0c-1.5,0-3,0-4.6,0c-0.3,0-0.6,0-0.9,0c-0.2,0-0.5,0-0.7,0c-0.2,0-0.4,0-0.6,0
	c-0.1,0-0.1,0-0.1,0.1c0,0.9,0,1.7,0,2.6c0,1.6,0,3.2,0,4.8c0,1.7,0,3.5,0,5.2c0,0.7,0,1.4,0,2.1C664.9,248.1,664.2,248,663.5,247.8
	C663.4,247.8,663.5,247.8,663.5,247.8z M667,248.1c0-0.9,0-1.7,0-2.6c0-1.8,0-3.6,0-5.3c0-1.5,0-3,0-4.6c0-0.3,0-0.6,0-0.9
	c0,0,0.5,0,0.5,0c1.4,0,2.8,0,4.2,0c1.8,0,3.6,0,5.4,0c1.1,0,2.1,0,3.2,0c0,0,0,0,0.1,0c-0.1,3-1.3,5.9-3.2,8.2
	c-1.9,2.3-4.5,4-7.3,4.7C668.9,247.9,668,248,667,248.1z"/>
<path fill="#010101" d="M182.6,270c0,3,0.9,6,2.6,8.6c1.6,2.5,3.9,4.5,6.6,5.7c2.8,1.3,5.9,1.7,8.9,1.2c2.9-0.4,5.7-1.7,7.9-3.7
	c2.2-2,3.9-4.6,4.7-7.4c0.9-2.9,0.8-6.1-0.1-9c-0.9-2.8-2.6-5.4-4.9-7.3c-2.3-1.9-5.1-3.1-8-3.5c-3-0.4-6.1,0.1-8.8,1.4
	c-2.7,1.3-4.9,3.3-6.5,5.8C183.5,264.2,182.6,267.1,182.6,270z M184.5,267.2c0.6-3.2,2.4-6,4.8-8.1c2.5-2.1,5.6-3.2,8.9-3.2
	c3.3,0,6.6,1.1,9.1,3.2c2.3,2,4,4.6,4.8,7.6c0.7,3.1,0.4,6.4-0.9,9.3c-1.3,2.8-3.6,5.2-6.4,6.6c-1.8,0.9-3.7,1.4-5.7,1.5
	c0-0.9,0-1.7,0-2.6c0-1.8,0-3.6,0-5.3c0-1.5,0-3,0-4.6c0-0.3,0-0.6,0-0.9c0-0.2,0-0.5,0-0.7c0-0.2,0-0.4,0-0.6c0-0.1,0-0.1-0.1-0.1
	c-0.9,0-1.7,0-2.6,0c-1.6,0-3.2,0-4.8,0c-1.7,0-3.5,0-5.2,0c-0.7,0-1.4,0-2.1,0C184.2,268.6,184.3,267.9,184.5,267.2
	C184.5,267.1,184.5,267.2,184.5,267.2z M184.2,270.7c0.9,0,1.7,0,2.6,0c1.8,0,3.6,0,5.3,0c1.5,0,3,0,4.6,0c0.3,0,0.6,0,0.9,0
	c0,0,0,0.5,0,0.5c0,1.4,0,2.8,0,4.2c0,1.8,0,3.6,0,5.4c0,1.1,0,2.1,0,3.2c0,0,0,0,0,0.1c-3-0.1-5.9-1.3-8.2-3.2
	c-2.3-1.9-4-4.5-4.7-7.3C184.4,272.6,184.3,271.7,184.2,270.7z"/>
<path fill="#010101" d="M306.3,254.4c-3,0-6,0.9-8.6,2.6c-2.5,1.6-4.5,3.9-5.7,6.6c-1.3,2.8-1.7,5.9-1.2,8.9
	c0.4,2.9,1.7,5.7,3.7,7.9c2,2.2,4.6,3.9,7.4,4.7c2.9,0.9,6.1,0.8,9-0.1c2.8-0.9,5.4-2.6,7.3-4.9c1.9-2.3,3.1-5.1,3.5-8
	c0.4-3-0.1-6.1-1.4-8.8c-1.3-2.7-3.3-4.9-5.8-6.5C312.1,255.2,309.2,254.4,306.3,254.4z M309.1,256.2c3.2,0.6,6,2.4,8.1,4.8
	c2.1,2.5,3.2,5.6,3.2,8.9c0,3.3-1.1,6.6-3.2,9.1c-2,2.3-4.6,4-7.6,4.8c-3.1,0.7-6.4,0.4-9.3-0.9c-2.8-1.3-5.2-3.6-6.6-6.4
	c-0.9-1.8-1.4-3.7-1.5-5.7c0.9,0,1.7,0,2.6,0c1.8,0,3.6,0,5.3,0c1.5,0,3,0,4.6,0c0.3,0,0.6,0,0.9,0c0.2,0,0.5,0,0.7,0
	c0.2,0,0.4,0,0.6,0c0.1,0,0.1,0,0.1-0.1c0-0.9,0-1.7,0-2.6c0-1.6,0-3.2,0-4.8c0-1.7,0-3.5,0-5.2c0-0.7,0-1.4,0-2.1
	C307.7,255.9,308.4,256,309.1,256.2C309.2,256.2,309,256.2,309.1,256.2z M305.6,255.9c0,0.9,0,1.7,0,2.6c0,1.8,0,3.6,0,5.3
	c0,1.5,0,3,0,4.6c0,0.3,0,0.6,0,0.9c0,0-0.5,0-0.5,0c-1.4,0-2.8,0-4.2,0c-1.8,0-3.6,0-5.4,0c-1.1,0-2.1,0-3.2,0c0,0,0,0-0.1,0
	c0.1-3,1.3-5.9,3.2-8.2c1.9-2.3,4.5-4,7.3-4.7C303.7,256.1,304.6,256,305.6,255.9z"/>
<path fill="#010101" d="M702.3,249.6c3,0,6-0.9,8.6-2.5c2.5-1.6,4.5-3.9,5.7-6.6c1.3-2.8,1.7-5.9,1.2-8.9c-0.4-2.9-1.7-5.7-3.7-7.9
	c-2-2.2-4.6-3.9-7.4-4.7c-2.9-0.9-6.1-0.8-9,0.1c-2.8,0.9-5.4,2.6-7.3,4.9c-1.9,2.3-3.1,5.1-3.5,8c-0.4,3,0.1,6.1,1.4,8.8
	c1.3,2.7,3.3,4.9,5.8,6.5C696.5,248.8,699.4,249.6,702.3,249.6z M699.5,247.8c-3.2-0.6-6-2.4-8.1-4.8c-2.1-2.5-3.2-5.6-3.2-8.9
	c0-3.3,1.1-6.6,3.2-9.1c2-2.3,4.6-4,7.6-4.8c3.1-0.7,6.4-0.4,9.3,0.9c2.8,1.3,5.2,3.6,6.6,6.4c0.9,1.8,1.4,3.7,1.5,5.7
	c-0.9,0-1.7,0-2.6,0c-1.8,0-3.6,0-5.3,0c-1.5,0-3,0-4.6,0c-0.3,0-0.6,0-0.9,0c-0.2,0-0.5,0-0.7,0c-0.2,0-0.4,0-0.6,0
	c-0.1,0-0.1,0-0.1,0.1c0,0.9,0,1.7,0,2.6c0,1.6,0,3.2,0,4.8c0,1.7,0,3.5,0,5.2c0,0.7,0,1.4,0,2.1C700.9,248.1,700.2,248,699.5,247.8
	C699.4,247.8,699.5,247.8,699.5,247.8z"/>
<path fill="#010101" d="M218.6,270c0,3,0.9,6,2.5,8.6c1.6,2.5,3.9,4.5,6.6,5.7c2.8,1.3,5.9,1.7,8.9,1.2c2.9-0.4,5.7-1.7,7.9-3.7
	c2.2-2,3.9-4.6,4.7-7.4c0.9-2.9,0.8-6.1-0.1-9c-0.9-2.8-2.6-5.4-4.9-7.3c-2.3-1.9-5.1-3.1-8-3.5c-3-0.4-6.1,0.1-8.8,1.4
	c-2.7,1.3-4.9,3.3-6.5,5.8C219.5,264.2,218.6,267.1,218.6,270z M220.5,267.2c0.6-3.2,2.4-6,4.8-8.1c2.5-2.1,5.6-3.2,8.9-3.2
	c3.3,0,6.6,1.1,9.1,3.2c2.3,2,4,4.6,4.8,7.6c0.7,3.1,0.4,6.4-0.9,9.3c-1.3,2.8-3.6,5.2-6.4,6.6c-1.8,0.9-3.7,1.4-5.7,1.5
	c0-0.9,0-1.7,0-2.6c0-1.8,0-3.6,0-5.3c0-1.5,0-3,0-4.6c0-0.3,0-0.6,0-0.9c0-0.2,0-0.5,0-0.7c0-0.2,0-0.4,0-0.6c0-0.1,0-0.1-0.1-0.1
	c-0.9,0-1.7,0-2.6,0c-1.6,0-3.2,0-4.8,0c-1.7,0-3.5,0-5.2,0c-0.7,0-1.4,0-2.1,0C220.2,268.6,220.3,267.9,220.5,267.2
	C220.5,267.1,220.5,267.2,220.5,267.2z"/>
<path fill="#010101" d="M342.3,254.4c-3,0-6,0.9-8.6,2.6c-2.5,1.6-4.5,3.9-5.7,6.6c-1.3,2.8-1.7,5.9-1.2,8.9
	c0.4,2.9,1.7,5.7,3.7,7.9c2,2.2,4.6,3.9,7.4,4.7c2.9,0.9,6.1,0.8,9-0.1c2.8-0.9,5.4-2.6,7.3-4.9c1.9-2.3,3.1-5.1,3.5-8
	c0.4-3-0.1-6.1-1.4-8.8c-1.3-2.7-3.3-4.9-5.8-6.5C348.1,255.2,345.2,254.4,342.3,254.4z M345.1,256.2c3.2,0.6,6,2.4,8.1,4.8
	c2.1,2.5,3.2,5.6,3.2,8.9c0,3.3-1.1,6.6-3.2,9.1c-2,2.3-4.6,4-7.6,4.8c-3.1,0.7-6.4,0.4-9.3-0.9c-2.8-1.3-5.2-3.6-6.6-6.4
	c-0.9-1.8-1.4-3.7-1.5-5.7c0.9,0,1.7,0,2.6,0c1.8,0,3.6,0,5.3,0c1.5,0,3,0,4.6,0c0.3,0,0.6,0,0.9,0c0.2,0,0.5,0,0.7,0
	c0.2,0,0.4,0,0.6,0c0.1,0,0.1,0,0.1-0.1c0-0.9,0-1.7,0-2.6c0-1.6,0-3.2,0-4.8c0-1.7,0-3.5,0-5.2c0-0.7,0-1.4,0-2.1
	C343.7,255.9,344.4,256,345.1,256.2C345.2,256.2,345,256.2,345.1,256.2z"/>
<path fill="#010101" d="M160.3,254.5c-3,0.4-5.9,1.7-8.2,3.7c-2.2,1.9-3.9,4.5-4.8,7.3c-0.8,2.7-0.9,5.7-0.2,8.4
	c0.6,2.4,1.9,4.7,3.6,6.6c1.7,1.9,3.8,3.3,6.2,4.2c2.8,1,6,1.2,8.9,0.6c2.5-0.6,4.8-1.8,6.8-3.4c1.9-1.7,3.4-3.8,4.3-6.2
	c0.7-1.8,1.1-3.7,1.1-5.7c0-2.6-0.6-5.1-1.9-7.4c-1.2-2.2-2.9-4.1-5-5.5c-2.1-1.5-4.6-2.4-7.2-2.6
	C162.7,254.3,161.5,254.3,160.3,254.5C157,254.9,160.9,254.4,160.3,254.5z M176.4,270c0,3.2-1.1,6.3-3.1,8.8c-1.7,2.1-4,3.7-6.6,4.6
	c-1.3,0.4-2.7,0.7-4.1,0.7c-0.1,0-1,0-1,0c0,0,0,0,0-0.1c0-0.1,0-0.2,0-0.4c0-1.3,0-2.6,0-3.8c0-1.8,0-3.7,0-5.5c0-1.4,0-2.8,0-4.3
	c0-0.3,0-0.5,0-0.8c0,0,0.5,0,0.5,0c1.3,0,2.7,0,4,0c1.8,0,3.7,0,5.5,0c1.4,0,2.7,0,4.1,0c0.2,0,0.3,0,0.5,0c0,0,0.1,0,0.1,0
	C176.4,269.3,176.4,269.9,176.4,270z"/>
<path fill="#010101" d="M285.8,268c-0.4-3-1.7-5.9-3.7-8.2c-1.9-2.2-4.5-3.9-7.3-4.8c-2.7-0.8-5.7-0.9-8.4-0.2
	c-2.4,0.6-4.7,1.9-6.6,3.6c-1.9,1.7-3.3,3.8-4.2,6.2c-1,2.8-1.2,6-0.6,8.9c0.6,2.5,1.8,4.8,3.4,6.8c1.7,1.9,3.8,3.4,6.2,4.3
	c1.8,0.7,3.7,1.1,5.7,1.1c2.6,0,5.1-0.6,7.4-1.9c2.2-1.2,4.1-2.9,5.5-5c1.5-2.1,2.4-4.6,2.6-7.2C286,270.4,286,269.2,285.8,268
	C285.4,264.7,285.9,268.7,285.8,268z M270.3,284.1c-3.2,0-6.3-1.1-8.8-3.1c-2.1-1.7-3.7-4-4.6-6.6c-0.4-1.3-0.7-2.7-0.7-4.1
	c0-0.1,0-1,0-1c0,0,0,0,0.1,0c0.1,0,0.2,0,0.4,0c1.3,0,2.6,0,3.8,0c1.8,0,3.7,0,5.5,0c1.4,0,2.8,0,4.3,0c0.3,0,0.5,0,0.8,0
	c0,0,0,0.5,0,0.5c0,1.3,0,2.7,0,4c0,1.8,0,3.7,0,5.5c0,1.4,0,2.7,0,4.1c0,0.2,0,0.3,0,0.5c0,0,0,0.1,0,0.1
	C271,284.1,270.4,284.1,270.3,284.1z"/>
<path fill="#010101" d="M380.3,285.5c3-0.4,5.9-1.7,8.2-3.7c2.2-1.9,3.9-4.5,4.8-7.3c0.8-2.7,0.9-5.7,0.2-8.4
	c-0.6-2.4-1.9-4.7-3.6-6.6c-1.7-1.9-3.8-3.3-6.2-4.2c-2.8-1-6-1.2-8.9-0.6c-2.5,0.6-4.8,1.8-6.8,3.4c-1.9,1.7-3.4,3.8-4.3,6.2
	c-0.7,1.8-1.1,3.7-1.1,5.7c0,2.6,0.6,5.1,1.9,7.4c1.2,2.2,2.9,4.1,5,5.5c2.1,1.5,4.6,2.4,7.2,2.6
	C377.9,285.7,379.1,285.7,380.3,285.5C383.6,285.1,379.6,285.6,380.3,285.5z M364.2,270c0-3.2,1.1-6.3,3.1-8.8
	c1.7-2.1,4-3.7,6.6-4.6c1.3-0.4,2.7-0.7,4.1-0.7c0.1,0,1,0,1,0c0,0,0,0,0,0.1c0,0.1,0,0.2,0,0.4c0,1.3,0,2.6,0,3.8
	c0,1.8,0,3.7,0,5.5c0,1.4,0,2.8,0,4.3c0,0.3,0,0.5,0,0.8c0,0-0.5,0-0.5,0c-1.3,0-2.7,0-4,0c-1.8,0-3.7,0-5.5,0c-1.4,0-2.7,0-4.1,0
	c-0.2,0-0.3,0-0.5,0c0,0-0.1,0-0.1,0C364.2,270.7,364.2,270.1,364.2,270z"/>
<path fill="#010101" d="M414.3,254.4c-8.6,0-15.6,7-15.6,15.6c0,8.6,7,15.6,15.6,15.6s15.6-7,15.6-15.6
	C429.9,261.4,422.9,254.4,414.3,254.4z M417.6,256.3v14.4h-6.7v-14.4c1.1-0.3,2.2-0.4,3.3-0.4C415.4,255.9,416.6,256,417.6,256.3z
	 M414.3,284.1c-7.8,0-14.1-6.3-14.1-14.1c0-6.1,3.9-11.3,9.4-13.3v15.4h9.5v-15.4c5.4,2,9.4,7.2,9.4,13.3
	C428.4,277.8,422.1,284.1,414.3,284.1z"/>
<path fill="#010101" d="M450.3,254.4c-8.6,0-15.6,7-15.6,15.6c0,8.6,7,15.6,15.6,15.6c8.6,0,15.6-7,15.6-15.6
	C465.9,261.4,458.9,254.4,450.3,254.4z M450.3,284.1c-7.8,0-14.1-6.3-14.1-14.1c0-6.1,3.8-11.2,9.2-13.2v15.3h9.5v-15.4
	c5.5,1.9,9.5,7.2,9.5,13.3C464.4,277.8,458.1,284.1,450.3,284.1z"/>
<path fill="#010101" d="M490.9,255L490.9,255c-1.5-0.4-3-0.7-4.6-0.7c-1.7,0-3.3,0.3-4.9,0.8v0c0,0-0.1,0-0.1,0
	c-0.1,0-0.2,0.1-0.3,0.1c-0.1,0-0.1,0-0.2,0.1c0,0,0,0,0,0v0c-5.9,2.2-10.1,8-10.1,14.6c0,8.6,7,15.6,15.6,15.6
	c8.6,0,15.6-7,15.6-15.6C501.9,263,497.3,257,490.9,255z M481.4,272.1v-15.3c1.5-0.6,3.2-0.9,4.9-0.9c1.6,0,3.2,0.3,4.6,0.8v15.4
	H481.4z"/>
<path fill="#010101" d="M537.9,270c0-8.6-7-15.6-15.6-15.6s-15.6,7-15.6,15.6c0,8.6,7,15.6,15.6,15.6S537.9,278.6,537.9,270z
	 M536,273.3h-14.4v-6.7H536c0.3,1.1,0.4,2.2,0.4,3.3C536.4,271.2,536.3,272.3,536,273.3z M508.2,270c0-7.8,6.3-14.1,14.1-14.1
	c6.1,0,11.3,3.9,13.3,9.4h-15.4v9.5h15.4c-2,5.4-7.2,9.4-13.3,9.4C514.5,284.1,508.2,277.8,508.2,270z"/>
<path fill="#010101" d="M573.9,270c0-8.6-7-15.6-15.6-15.6c-8.6,0-15.6,7-15.6,15.6c0,8.6,7,15.6,15.6,15.6
	C566.9,285.6,573.9,278.6,573.9,270z M544.2,270c0-7.8,6.3-14.1,14.1-14.1c6.1,0,11.2,3.8,13.2,9.2h-15.3v9.5h15.4
	c-1.9,5.5-7.2,9.5-13.3,9.5C550.5,284.1,544.2,277.8,544.2,270z"/>
<path fill="#010101" d="M609.2,274.6L609.2,274.6c0.4-1.5,0.7-3,0.7-4.6c0-1.7-0.3-3.3-0.8-4.9h0c0,0,0-0.1,0-0.1
	c0-0.1-0.1-0.2-0.1-0.3c0-0.1,0-0.1-0.1-0.2c0,0,0,0,0,0h0c-2.2-5.9-8-10.1-14.6-10.1c-8.6,0-15.6,7-15.6,15.6
	c0,8.6,7,15.6,15.6,15.6C601.3,285.6,607.3,281,609.2,274.6z M592.2,265.1h15.3c0.6,1.5,0.9,3.2,0.9,4.9c0,1.6-0.3,3.2-0.8,4.6
	h-15.4V265.1z"/>
<path fill="#010101" d="M630.3,285.6c8.6,0,15.6-7,15.6-15.6c0-8.6-7-15.6-15.6-15.6s-15.6,7-15.6,15.6
	C614.6,278.6,621.7,285.6,630.3,285.6z M626.9,283.7v-14.4h6.7v14.4c-1.1,0.3-2.2,0.4-3.3,0.4C629.1,284.1,628,284,626.9,283.7z
	 M630.3,255.9c7.8,0,14.1,6.3,14.1,14.1c0,6.1-3.9,11.3-9.4,13.3v-15.4h-9.5v15.4c-5.4-2-9.4-7.2-9.4-13.3
	C616.2,262.2,622.5,255.9,630.3,255.9z"/>
<path fill="#010101" d="M666.3,285.6c8.6,0,15.6-7,15.6-15.6c0-8.6-7-15.6-15.6-15.6c-8.6,0-15.6,7-15.6,15.6
	C650.6,278.6,657.7,285.6,666.3,285.6z M666.3,255.9c7.8,0,14.1,6.3,14.1,14.1c0,6.1-3.8,11.2-9.2,13.2v-15.3h-9.5v15.4
	c-5.5-1.9-9.5-7.2-9.5-13.3C652.2,262.2,658.5,255.9,666.3,255.9z"/>
<path fill="#010101" d="M697.7,285L697.7,285c1.5,0.4,3,0.7,4.6,0.7c1.7,0,3.3-0.3,4.9-0.8v0c0,0,0.1,0,0.1,0c0.1,0,0.2-0.1,0.3-0.1
	c0.1,0,0.1,0,0.2-0.1c0,0,0,0,0,0v0c5.9-2.2,10.1-8,10.1-14.6c0-8.6-7-15.6-15.6-15.6c-8.6,0-15.6,7-15.6,15.6
	C686.6,277,691.3,283,697.7,285z M707.2,267.9v15.3c-1.5,0.6-3.2,0.9-4.9,0.9c-1.6,0-3.2-0.3-4.6-0.8v-15.4
	C697.7,267.9,707.2,267.9,707.2,267.9z"/>
<path fill="#010101" d="M146.6,306c0,8.6,7,15.6,15.6,15.6s15.6-7,15.6-15.6c0-8.6-7-15.6-15.6-15.6S146.6,297.4,146.6,306z
	 M148.6,302.7H163v6.7h-14.4c-0.3-1.1-0.4-2.2-0.4-3.3C148.2,304.8,148.3,303.7,148.6,302.7z M176.4,306c0,7.8-6.3,14.1-14.1,14.1
	c-6.1,0-11.3-3.9-13.3-9.4h15.4v-9.5H149c2-5.4,7.2-9.4,13.3-9.4C170.1,291.9,176.4,298.2,176.4,306z"/>
<path fill="#010101" d="M182.6,306c0,8.6,7,15.6,15.6,15.6c8.6,0,15.6-7,15.6-15.6c0-8.6-7-15.6-15.6-15.6S182.6,297.4,182.6,306z
	 M212.4,306c0,7.8-6.3,14.1-14.1,14.1c-6.1,0-11.2-3.8-13.2-9.2h15.3v-9.5H185c1.9-5.5,7.2-9.5,13.3-9.5
	C206.1,291.9,212.4,298.2,212.4,306z"/>
<path fill="#010101" d="M219.3,301.4L219.3,301.4c-0.4,1.5-0.7,3-0.7,4.6c0,1.7,0.3,3.3,0.8,4.9h0c0,0,0,0.1,0,0.1
	c0,0.1,0.1,0.2,0.1,0.3c0,0.1,0,0.1,0.1,0.2c0,0,0,0,0,0h0c2.2,5.9,8,10.1,14.6,10.1c8.6,0,15.6-7,15.6-15.6c0-8.6-7-15.6-15.6-15.6
	C227.3,290.4,221.3,295,219.3,301.4z M236.4,310.9h-15.3c-0.6-1.5-0.9-3.2-0.9-4.9c0-1.6,0.3-3.2,0.8-4.6h15.4V310.9z"/>
<path fill="#010101" d="M306.3,290.4c-8.6,0-15.6,7-15.6,15.6c0,8.6,7,15.6,15.6,15.6c8.6,0,15.6-7,15.6-15.6
	C321.9,297.4,314.9,290.4,306.3,290.4z M306.3,314.1c-4.5,0-8.1-3.6-8.1-8.1c0-4.5,3.6-8.1,8.1-8.1c4.5,0,8.1,3.6,8.1,8.1
	C314.4,310.5,310.8,314.1,306.3,314.1z"/>
<path fill="#010101" d="M270.3,321.6c-8.6,0-15.6-7-15.6-15.6c0-8.6,7-15.6,15.6-15.6c8.6,0,15.6,7,15.6,15.6
	C285.9,314.6,278.9,321.6,270.3,321.6z M270.3,291.9c-7.8,0-14.1,6.3-14.1,14.1c0,7.8,6.3,14.1,14.1,14.1c7.8,0,14.1-6.3,14.1-14.1
	C284.4,298.2,278.1,291.9,270.3,291.9z M270.3,313.1c-3.9,0-7.1-3.2-7.1-7.1c0-3.9,3.2-7.1,7.1-7.1c3.9,0,7.1,3.2,7.1,7.1
	C277.4,309.9,274.2,313.1,270.3,313.1z M270.3,300.4c-3.1,0-5.6,2.5-5.6,5.6c0,3.1,2.5,5.6,5.6,5.6c3.1,0,5.6-2.5,5.6-5.6
	C275.8,302.9,273.3,300.4,270.3,300.4z"/>
<path fill="#010101" d="M384.1,298.2c-1.8-3.4-5.4-5.7-9.5-5.7c-5.9,0-10.8,4.8-10.8,10.8c0,5.3,3.8,9.6,8.7,10.6
	c1.8,3.4,5.4,5.7,9.5,5.7c5.9,0,10.8-4.8,10.8-10.8C392.8,303.5,389,299.1,384.1,298.2z M365.3,303.2c0-5.1,4.1-9.2,9.2-9.2
	c3.1,0,5.9,1.6,7.6,4c0,0-0.1,0-0.1,0c-5.9,0-10.8,4.8-10.8,10.8c0,1.1,0.2,2.3,0.5,3.3C368,310.9,365.3,307.4,365.3,303.2z
	 M383.8,303.2c0,5.1-4.1,9.2-9.2,9.2c-0.3,0-0.7,0-1-0.1c-0.5-1.1-0.8-2.4-0.8-3.7c0-5.1,4.1-9.2,9.2-9.2c0.3,0,0.7,0,1,0.1
	C383.5,300.7,383.8,301.9,383.8,303.2z M382,318c-3.1,0-5.9-1.6-7.6-4c0,0,0.1,0,0.1,0c5.9,0,10.8-4.8,10.8-10.8
	c0-1.1-0.2-2.3-0.5-3.3c3.7,1.2,6.4,4.7,6.4,8.8C391.3,313.9,387.1,318,382,318z"/>
<path fill="#010101" d="M425.4,294.9c-6.1-6.1-16-6.1-22.1,0c-6.1,6.1-6.1,16,0,22.1c6.1,6.1,16,6.1,22.1,0
	C431.5,311,431.5,301,425.4,294.9z M424.7,315.5C424.7,315.5,424.7,315.5,424.7,315.5l-9.5-9.5l9.5-9.5
	C429.6,301.9,429.6,310.1,424.7,315.5z M423.8,295.5l-9.5,9.5l-9.5-9.5l0,0C410.2,290.7,418.4,290.7,423.8,295.5z M403.8,296.5
	L403.8,296.5l9.5,9.5l-9.5,9.5C399,310.1,399,301.9,403.8,296.5z M404.8,316.5l9.5-9.5l9.5,9.5l0,0
	C418.4,321.3,410.2,321.3,404.8,316.5z"/>
<path fill="#010101" d="M450.3,290.4c-8.6,0-15.6,7-15.6,15.6c0,8.6,7,15.6,15.6,15.6c8.6,0,15.6-7,15.6-15.6
	C465.9,297.4,458.9,290.4,450.3,290.4z M459.7,316.5l-9.4-9.4l-9.4,9.4c-2.9-2.6-4.7-6.3-4.7-10.5c0-4.1,1.8-7.9,4.7-10.5l9.4,9.4
	l9.4-9.4c2.9,2.6,4.7,6.3,4.7,10.5C464.4,310.1,462.6,313.9,459.7,316.5z"/>
<path fill="#010101" d="M162.2,369.2c-8.4,0-15.3,6.6-15.6,14.9h1.5h28.2h1.5C177.5,375.9,170.6,369.2,162.2,369.2z M162.2,383.1
	c-1.6,0-2.8-1.3-2.8-2.8c0-1.6,1.3-2.8,2.8-2.8c1.6,0,2.8,1.3,2.8,2.8C165,381.8,163.8,383.1,162.2,383.1z"/>
<path fill="#010101" d="M198.9,369.2c-8.4,0-15.3,6.6-15.6,14.9h1.5H213h1.5C214.2,375.9,207.3,369.2,198.9,369.2z M198.9,376
	c-1.6,0-2.8-1.3-2.8-2.8c0-1.6,1.3-2.8,2.8-2.8c1.6,0,2.8,1.3,2.8,2.8C201.7,374.8,200.5,376,198.9,376z"/>
<path fill="#010101" d="M235.1,367.8c-8.6,0-15.6,7-15.6,15.6c0,0.2,0,0.5,0,0.7h1.5h28.2h1.5c0-0.2,0-0.5,0-0.7
	C250.8,374.8,243.8,367.8,235.1,367.8z M237.2,382.8c0.7-0.6,1.2-1.5,1.2-2.5c0-1.8-1.4-3.2-3.2-3.2c-1.8,0-3.2,1.4-3.2,3.2
	c0,1,0.5,1.9,1.2,2.5H221c0.4-7.5,6.5-13.4,14.1-13.4c7.5,0,13.7,5.9,14.1,13.4H237.2z"/>
<path fill="#010101" d="M269.1,367.8c-8.6,0-15.6,7-15.6,15.6c0,0.2,0,0.5,0,0.7h1.5h28.2h1.5c0-0.2,0-0.5,0-0.7
	C284.7,374.8,277.7,367.8,269.1,367.8z M255,382.8c0.3-6.7,5.4-12.2,12-13.2c-0.7,0.6-1.1,1.4-1.1,2.4c0,1.8,1.4,3.2,3.2,3.2
	c1.8,0,3.2-1.4,3.2-3.2c0-1-0.4-1.8-1.1-2.4c6.5,1,11.6,6.5,12,13.2H255z"/>
<path fill="#010101" d="M380,393.8c-8.1,0-14.7-6.6-14.7-14.7c0-8.1,6.6-14.7,14.7-14.7c8.1,0,14.7,6.6,14.7,14.7
	C394.7,387.2,388.1,393.8,380,393.8z M380,365.9c-7.3,0-13.2,5.9-13.2,13.2c0,7.3,5.9,13.2,13.2,13.2c7.3,0,13.2-5.9,13.2-13.2
	C393.1,371.8,387.2,365.9,380,365.9z M381.3,389.5c-0.4,0-0.7-0.3-0.8-0.7c-0.1-0.4,0.2-0.8,0.7-0.9l0,0c0.4-0.1,0.8,0.2,0.9,0.7
	c0.1,0.4-0.2,0.8-0.7,0.9l0,0C381.4,389.5,381.4,389.5,381.3,389.5z M378.6,389.5c0,0-0.1,0-0.1,0l0,0c-0.4-0.1-0.7-0.5-0.7-0.9
	c0.1-0.4,0.5-0.7,0.9-0.7l0,0c0.4,0.1,0.7,0.5,0.7,0.9C379.3,389.2,379,389.5,378.6,389.5z M384,388.8c-0.3,0-0.6-0.2-0.7-0.5
	c-0.2-0.4,0-0.9,0.4-1.1l0,0c0.4-0.2,0.9,0,1.1,0.4c0.2,0.4,0,0.9-0.4,1.1l0,0C384.2,388.7,384.1,388.8,384,388.8z M375.9,388.8
	c-0.1,0-0.2,0-0.3-0.1l0,0c-0.4-0.2-0.6-0.7-0.4-1.1c0.2-0.4,0.7-0.6,1.1-0.4l0,0c0.4,0.2,0.6,0.7,0.4,1.1
	C376.5,388.6,376.2,388.8,375.9,388.8z M386.3,387.3c-0.2,0-0.4-0.1-0.6-0.3c-0.3-0.3-0.3-0.8,0.1-1.1l0,0c0.3-0.3,0.8-0.2,1.1,0.1
	c0.3,0.3,0.2,0.8-0.1,1.1l0,0C386.7,387.2,386.5,387.3,386.3,387.3z M373.6,387.3c-0.2,0-0.4-0.1-0.5-0.2l0,0
	c-0.3-0.3-0.4-0.8-0.1-1.1c0.3-0.3,0.8-0.4,1.1-0.1l0,0c0.3,0.3,0.4,0.8,0.1,1.1C374,387.2,373.8,387.3,373.6,387.3z M388.2,385.2
	c-0.1,0-0.3,0-0.4-0.1c-0.4-0.2-0.5-0.7-0.2-1.1l0,0c0.2-0.4,0.7-0.5,1.1-0.2c0.4,0.2,0.5,0.7,0.2,1.1l0,0
	C388.7,385.1,388.4,385.2,388.2,385.2z M371.8,385.2c-0.3,0-0.5-0.1-0.7-0.4l0,0c-0.2-0.4-0.1-0.9,0.2-1.1c0.4-0.2,0.9-0.1,1.1,0.2
	l0,0c0.2,0.4,0.1,0.9-0.2,1.1C372.1,385.1,371.9,385.2,371.8,385.2z M389.3,382.7c-0.1,0-0.1,0-0.2,0c-0.4-0.1-0.7-0.6-0.5-1l0,0
	c0.1-0.4,0.6-0.7,1-0.5c0.4,0.1,0.7,0.6,0.5,1l0,0C390,382.4,389.7,382.7,389.3,382.7z M370.6,382.6c-0.3,0-0.7-0.2-0.8-0.6l0,0
	c-0.1-0.4,0.1-0.9,0.6-1c0.4-0.1,0.9,0.1,1,0.6l0,0c0.1,0.4-0.1,0.9-0.5,1C370.8,382.6,370.7,382.6,370.6,382.6z M389.7,379.9
	C389.7,379.9,389.7,379.9,389.7,379.9c-0.4,0-0.8-0.4-0.8-0.8v0c0,0,0,0,0,0c0-0.4,0.4-0.8,0.8-0.8c0.4,0,0.8,0.4,0.8,0.8l0,0.1
	C390.5,379.6,390.2,379.9,389.7,379.9z M370.2,379.9c-0.4,0-0.8-0.4-0.8-0.8v0c0-0.4,0.4-0.8,0.8-0.8c0.4,0,0.8,0.4,0.8,0.8v0
	C371,379.5,370.7,379.9,370.2,379.9z M389.3,377.2c-0.3,0-0.7-0.2-0.8-0.6l0,0c-0.1-0.4,0.1-0.9,0.5-1c0.4-0.1,0.9,0.1,1,0.5l0,0
	c0.1,0.4-0.1,0.9-0.6,1C389.5,377.1,389.4,377.2,389.3,377.2z M370.6,377.2c-0.1,0-0.2,0-0.2,0c-0.4-0.1-0.7-0.6-0.5-1l0,0
	c0.1-0.4,0.6-0.7,1-0.5c0.4,0.1,0.7,0.6,0.5,1l0,0C371.3,376.9,371,377.2,370.6,377.2z M388.2,374.6c-0.3,0-0.5-0.1-0.7-0.4l0,0
	c-0.2-0.4-0.1-0.9,0.2-1.1c0.4-0.2,0.9-0.1,1.1,0.2l0,0c0.2,0.4,0.1,0.9-0.2,1.1C388.5,374.6,388.3,374.6,388.2,374.6z M371.8,374.6
	c-0.1,0-0.3,0-0.4-0.1c-0.4-0.2-0.5-0.7-0.2-1.1l0,0c0.2-0.4,0.7-0.5,1.1-0.2c0.4,0.2,0.5,0.7,0.2,1.1l0,0
	C372.3,374.5,372,374.6,371.8,374.6z M386.4,372.5c-0.2,0-0.4-0.1-0.5-0.2l0,0c-0.3-0.3-0.4-0.8-0.1-1.1c0.3-0.3,0.8-0.4,1.1-0.1
	l0,0c0.3,0.3,0.4,0.8,0.1,1.1C386.8,372.4,386.6,372.5,386.4,372.5z M373.6,372.5c-0.2,0-0.4-0.1-0.6-0.3c-0.3-0.3-0.2-0.8,0.1-1.1
	l0,0c0.3-0.3,0.8-0.3,1.1,0.1c0.3,0.3,0.3,0.8-0.1,1.1l0,0C374,372.5,373.8,372.5,373.6,372.5z M384,371c-0.1,0-0.2,0-0.3-0.1l0,0
	c-0.4-0.2-0.6-0.7-0.4-1.1c0.2-0.4,0.7-0.6,1.1-0.4l0,0c0.4,0.2,0.6,0.7,0.4,1.1C384.6,370.9,384.3,371,384,371z M375.9,371
	c-0.3,0-0.6-0.2-0.7-0.5c-0.2-0.4,0-0.9,0.4-1.1l0,0c0.4-0.2,0.9,0,1.1,0.4c0.2,0.4,0,0.9-0.4,1.1l0,0C376.1,371,376,371,375.9,371z
	 M381.4,370.2c0,0-0.1,0-0.1,0l0,0c-0.4-0.1-0.7-0.5-0.7-0.9c0.1-0.4,0.5-0.7,0.9-0.7l0.1,0c0.4,0.1,0.7,0.5,0.7,0.9
	C382.1,370,381.8,370.2,381.4,370.2z M378.6,370.2c-0.4,0-0.7-0.3-0.8-0.7c-0.1-0.4,0.2-0.8,0.7-0.9l0,0c0.4-0.1,0.8,0.2,0.9,0.7
	c0.1,0.4-0.2,0.8-0.7,0.9l0,0C378.7,370.2,378.6,370.2,378.6,370.2z M380,385.3L380,385.3c-0.5,0-0.8-0.4-0.8-0.8
	c0-0.4,0.4-0.8,0.8-0.8c0,0,0,0,0,0l0,0c0.4,0,0.8,0.4,0.8,0.8C380.8,385,380.4,385.3,380,385.3z M382.7,384.6
	c-0.3,0-0.5-0.1-0.7-0.4c-0.2-0.4-0.1-0.9,0.3-1.1l0,0c0.4-0.2,0.9-0.1,1.1,0.3c0.2,0.4,0.1,0.9-0.3,1.1l0,0
	C382.9,384.6,382.8,384.6,382.7,384.6z M377.3,384.6c-0.1,0-0.3,0-0.4-0.1l0,0c-0.4-0.2-0.5-0.7-0.3-1.1c0.2-0.4,0.7-0.5,1.1-0.3
	l0,0c0.4,0.2,0.5,0.7,0.3,1.1C377.8,384.5,377.5,384.6,377.3,384.6z M384.7,382.6c-0.1,0-0.3,0-0.4-0.1c-0.4-0.2-0.5-0.7-0.3-1.1
	l0,0c0.2-0.4,0.7-0.5,1.1-0.3c0.4,0.2,0.5,0.7,0.3,1.1l0,0C385.2,382.5,385,382.6,384.7,382.6z M375.3,382.6c-0.3,0-0.5-0.1-0.7-0.4
	l0,0c-0.2-0.4-0.1-0.9,0.3-1.1c0.4-0.2,0.9-0.1,1.1,0.3l0,0c0.2,0.4,0.1,0.9-0.3,1.1C375.5,382.6,375.4,382.6,375.3,382.6z
	 M385.4,379.9C385.4,379.9,385.4,379.9,385.4,379.9c-0.4,0-0.8-0.4-0.8-0.8l0-0.1c0-0.4,0.4-0.8,0.8-0.8c0.4,0,0.8,0.4,0.8,0.8
	l0,0.1C386.2,379.6,385.9,379.9,385.4,379.9z M374.5,379.9c-0.4,0-0.8-0.4-0.8-0.8l0-0.1c0-0.4,0.4-0.8,0.8-0.8c0,0,0,0,0,0
	c0.4,0,0.8,0.4,0.8,0.8l0,0C375.3,379.5,375,379.9,374.5,379.9z M384.7,377.2c-0.3,0-0.5-0.1-0.7-0.4l0,0c-0.2-0.4-0.1-0.9,0.3-1.1
	c0.4-0.2,0.9-0.1,1.1,0.3l0,0c0.2,0.4,0.1,0.9-0.3,1.1C385,377.1,384.8,377.2,384.7,377.2z M375.2,377.2c-0.1,0-0.3,0-0.4-0.1
	c-0.4-0.2-0.5-0.7-0.3-1.1l0,0c0.2-0.4,0.7-0.5,1.1-0.3c0.4,0.2,0.5,0.7,0.3,1.1l0,0C375.8,377,375.5,377.2,375.2,377.2z
	 M382.7,375.2c-0.1,0-0.3,0-0.4-0.1l0,0c-0.4-0.2-0.5-0.7-0.3-1.1c0.2-0.4,0.7-0.5,1.1-0.3l0,0c0.4,0.2,0.5,0.7,0.3,1.1
	C383.3,375,383,375.2,382.7,375.2z M377.2,375.2c-0.3,0-0.5-0.1-0.7-0.4c-0.2-0.4-0.1-0.9,0.3-1.1l0,0c0.4-0.2,0.9-0.1,1.1,0.3
	c0.2,0.4,0.1,0.9-0.3,1.1l0,0C377.5,375.1,377.4,375.2,377.2,375.2z M380,374.4L380,374.4c-0.5,0-0.8-0.4-0.8-0.8
	c0-0.4,0.4-0.8,0.8-0.8h0c0.4,0,0.8,0.4,0.8,0.8C380.8,374.1,380.4,374.4,380,374.4z"/>
<path fill="#010101" d="M416.3,393.8C416.3,393.8,416.3,393.8,416.3,393.8L416.3,393.8c-0.5,0-0.9-0.4-0.8-0.8
	c0-0.4,0.4-0.8,0.8-0.8c0,0,0,0,0,0l0,0c0.4,0,0.8,0.4,0.8,0.8C417.1,393.5,416.7,393.8,416.3,393.8z M419.1,393.7
	c-0.4,0-0.7-0.3-0.8-0.7c-0.1-0.4,0.2-0.8,0.7-0.9l0,0c0.4-0.1,0.8,0.2,0.9,0.7c0.1,0.4-0.2,0.8-0.7,0.9l0,0
	C419.1,393.7,419.1,393.7,419.1,393.7z M413.5,393.4c-0.1,0-0.1,0-0.2,0l0,0c-0.4-0.1-0.7-0.5-0.6-1c0.1-0.4,0.5-0.7,1-0.6l0,0
	c0.4,0.1,0.7,0.5,0.6,1C414.2,393.2,413.8,393.4,413.5,393.4z M421.8,393c-0.3,0-0.6-0.2-0.7-0.5c-0.2-0.4,0.1-0.9,0.5-1l0,0
	c0.4-0.2,0.9,0.1,1,0.5c0.2,0.4,0,0.9-0.5,1l0,0C422,393,421.9,393,421.8,393z M410.8,392.4c-0.1,0-0.2,0-0.4-0.1l0,0
	c-0.4-0.2-0.6-0.7-0.4-1.1c0.2-0.4,0.7-0.6,1.1-0.4l0,0c0.4,0.2,0.6,0.7,0.4,1.1C411.4,392.3,411.1,392.4,410.8,392.4z M424.3,391.7
	c-0.3,0-0.5-0.1-0.7-0.4c-0.2-0.4-0.1-0.9,0.2-1.1l0,0c0.4-0.2,0.9-0.1,1.1,0.3c0.2,0.4,0.1,0.9-0.3,1.1l0,0
	C424.6,391.7,424.5,391.7,424.3,391.7z M408.4,390.9c-0.2,0-0.3-0.1-0.5-0.2l0,0c-0.3-0.3-0.4-0.8-0.1-1.1c0.3-0.3,0.8-0.4,1.1-0.1
	l0,0c0.3,0.3,0.4,0.8,0.1,1.1C408.9,390.8,408.7,390.9,408.4,390.9z M426.6,390c-0.2,0-0.4-0.1-0.6-0.3c-0.3-0.3-0.3-0.8,0-1.1l0,0
	c0.3-0.3,0.8-0.3,1.1,0c0.3,0.3,0.3,0.8,0,1.1l0,0C427,389.9,426.8,390,426.6,390z M406.4,389c-0.2,0-0.4-0.1-0.6-0.3l0,0
	c-0.3-0.3-0.2-0.8,0.1-1.1c0.3-0.3,0.8-0.2,1.1,0.1l0,0c0.3,0.3,0.3,0.8-0.1,1.1C406.8,388.9,406.6,389,406.4,389z M428.4,387.9
	c-0.2,0-0.3,0-0.5-0.1c-0.4-0.3-0.4-0.7-0.2-1.1l0,0c0.3-0.4,0.7-0.5,1.1-0.2c0.4,0.3,0.5,0.7,0.2,1.1l0,0
	C428.9,387.8,428.7,387.9,428.4,387.9z M404.8,386.7c-0.3,0-0.6-0.1-0.7-0.4l0,0c-0.2-0.4-0.1-0.9,0.3-1.1c0.4-0.2,0.9-0.1,1.1,0.3
	l0,0c0.2,0.4,0.1,0.9-0.3,1.1C405.1,386.6,404.9,386.7,404.8,386.7z M429.8,385.4c-0.1,0-0.2,0-0.3-0.1c-0.4-0.2-0.6-0.6-0.4-1l0,0
	c0.2-0.4,0.6-0.6,1-0.4c0.4,0.2,0.6,0.6,0.4,1l0,0C430.4,385.2,430.1,385.4,429.8,385.4z M403.7,384.1c-0.3,0-0.7-0.2-0.8-0.6l0,0
	c-0.1-0.4,0.1-0.9,0.5-1c0.4-0.1,0.9,0.1,1,0.5l0,0c0.1,0.4-0.1,0.9-0.5,1C403.8,384.1,403.7,384.1,403.7,384.1z M430.6,382.7
	c-0.1,0-0.1,0-0.2,0c-0.4-0.1-0.7-0.5-0.6-0.9l0,0c0.1-0.4,0.5-0.7,0.9-0.6c0.4,0.1,0.7,0.5,0.6,0.9l0,0
	C431.3,382.5,431,382.7,430.6,382.7z M403.1,381.3c-0.4,0-0.7-0.3-0.8-0.7l0,0c0-0.4,0.3-0.8,0.7-0.9c0.4,0,0.8,0.3,0.9,0.7l0,0
	C403.9,380.9,403.6,381.3,403.1,381.3C403.2,381.3,403.1,381.3,403.1,381.3z M430.9,379.9c-0.4,0-0.8-0.4-0.8-0.8v-0.1
	c0-0.4,0.4-0.8,0.8-0.8c0.4,0,0.8,0.4,0.8,0.8v0.1C431.7,379.6,431.4,379.9,430.9,379.9z M403.1,378.5
	C403.1,378.5,403,378.5,403.1,378.5c-0.5,0-0.8-0.4-0.8-0.9l0,0c0-0.4,0.4-0.8,0.9-0.7c0.4,0,0.8,0.4,0.7,0.9l0,0
	C403.8,378.2,403.5,378.5,403.1,378.5z M430.6,377.1c-0.4,0-0.7-0.3-0.8-0.6l0,0c-0.1-0.4,0.2-0.9,0.6-0.9c0.4-0.1,0.9,0.2,0.9,0.6
	l0,0c0.1,0.4-0.2,0.9-0.6,0.9C430.8,377.1,430.7,377.1,430.6,377.1z M403.7,375.7c-0.1,0-0.2,0-0.2,0c-0.4-0.1-0.7-0.6-0.5-1l0,0
	c0.1-0.4,0.6-0.7,1-0.5c0.4,0.1,0.7,0.6,0.5,1l0,0C404.3,375.5,404,375.7,403.7,375.7z M429.8,374.4c-0.3,0-0.6-0.2-0.7-0.5l0,0
	c-0.2-0.4,0-0.9,0.4-1c0.4-0.2,0.9,0,1,0.4l0,0c0.2,0.4,0,0.9-0.4,1C430,374.4,429.9,374.4,429.8,374.4z M404.8,373.1
	c-0.1,0-0.3,0-0.4-0.1c-0.4-0.2-0.5-0.7-0.3-1.1l0,0c0.2-0.4,0.7-0.5,1.1-0.3c0.4,0.2,0.5,0.7,0.3,1.1l0,0
	C405.3,373,405,373.1,404.8,373.1z M428.4,371.9c-0.2,0-0.5-0.1-0.7-0.3l0,0c-0.3-0.4-0.2-0.9,0.2-1.1c0.4-0.3,0.9-0.2,1.1,0.2l0,0
	c0.3,0.4,0.2,0.9-0.2,1.1C428.8,371.9,428.6,371.9,428.4,371.9z M406.4,370.8c-0.2,0-0.4-0.1-0.5-0.2c-0.3-0.3-0.4-0.8-0.1-1.1l0,0
	c0.3-0.3,0.8-0.4,1.1-0.1c0.3,0.3,0.4,0.8,0.1,1.1l0,0C406.8,370.7,406.6,370.8,406.4,370.8z M426.6,369.8c-0.2,0-0.4-0.1-0.5-0.2
	l0,0c-0.3-0.3-0.3-0.8,0-1.1c0.3-0.3,0.8-0.3,1.1,0c0,0,0,0,0,0l0,0c0.3,0.3,0.3,0.8,0,1.1C427,369.7,426.8,369.8,426.6,369.8z
	 M408.4,368.9c-0.2,0-0.5-0.1-0.6-0.3c-0.3-0.3-0.2-0.8,0.1-1.1l0,0c0.3-0.3,0.8-0.2,1.1,0.1c0.3,0.3,0.2,0.8-0.1,1.1l0,0
	C408.8,368.8,408.6,368.9,408.4,368.9z M424.4,368.1c-0.1,0-0.3,0-0.4-0.1l0,0c-0.4-0.2-0.5-0.7-0.3-1.1c0.2-0.4,0.7-0.5,1.1-0.3
	l0,0c0.4,0.2,0.5,0.7,0.3,1.1C424.9,367.9,424.6,368.1,424.4,368.1z M410.8,367.4c-0.3,0-0.6-0.2-0.7-0.4c-0.2-0.4,0-0.9,0.4-1.1
	l0,0c0.4-0.2,0.9,0,1.1,0.4c0.2,0.4,0,0.9-0.4,1.1l0,0l0,0C411.1,367.3,410.9,367.4,410.8,367.4z M421.8,366.8c-0.1,0-0.2,0-0.3,0
	l0,0c-0.4-0.2-0.6-0.6-0.5-1c0.2-0.4,0.6-0.6,1-0.5l0,0c0.4,0.2,0.6,0.6,0.5,1C422.5,366.6,422.2,366.8,421.8,366.8z M413.5,366.4
	c-0.4,0-0.7-0.2-0.8-0.6c-0.1-0.4,0.1-0.9,0.6-1l0,0c0.4-0.1,0.9,0.1,1,0.6c0.1,0.4-0.1,0.9-0.6,1l0,0
	C413.6,366.4,413.5,366.4,413.5,366.4z M419.1,366.1c0,0-0.1,0-0.1,0l0,0c-0.4-0.1-0.7-0.5-0.7-0.9c0.1-0.4,0.5-0.7,0.9-0.7l0,0
	c0.4,0.1,0.7,0.5,0.7,0.9C419.8,365.8,419.5,366.1,419.1,366.1z M416.2,366c-0.4,0-0.8-0.3-0.8-0.8c0-0.4,0.3-0.8,0.8-0.8l0,0
	c0.4,0,0.8,0.3,0.8,0.8C417.1,365.6,416.8,365.9,416.2,366L416.2,366C416.3,366,416.3,366,416.2,366z M417,389.6
	c-5.8,0-10.5-4.7-10.5-10.5c0-5.8,4.7-10.5,10.5-10.5s10.5,4.7,10.5,10.5C427.5,384.9,422.8,389.6,417,389.6z M417,370.1
	c-4.9,0-8.9,4-8.9,8.9c0,4.9,4,8.9,8.9,8.9c4.9,0,8.9-4,8.9-8.9C425.9,374.2,421.9,370.1,417,370.1z M417,385.3L417,385.3
	c-0.5,0-0.8-0.4-0.8-0.8c0-0.4,0.4-0.8,0.8-0.8c0,0,0,0,0,0l0,0c0.4,0,0.8,0.4,0.8,0.8C417.8,385,417.4,385.3,417,385.3z
	 M419.7,384.6c-0.3,0-0.5-0.1-0.7-0.4c-0.2-0.4-0.1-0.9,0.3-1.1l0,0c0.4-0.2,0.9-0.1,1.1,0.3c0.2,0.4,0.1,0.9-0.3,1.1l0,0
	C419.9,384.6,419.8,384.6,419.7,384.6z M414.3,384.6c-0.1,0-0.3,0-0.4-0.1l0,0c-0.4-0.2-0.5-0.7-0.3-1.1c0.2-0.4,0.7-0.5,1.1-0.3
	l0,0c0.4,0.2,0.5,0.7,0.3,1.1C414.8,384.5,414.5,384.6,414.3,384.6z M421.7,382.6c-0.1,0-0.3,0-0.4-0.1c-0.4-0.2-0.5-0.7-0.3-1.1
	l0,0c0.2-0.4,0.7-0.5,1.1-0.3c0.4,0.2,0.5,0.7,0.3,1.1l0,0C422.2,382.5,422,382.6,421.7,382.6z M412.3,382.6c-0.3,0-0.5-0.1-0.7-0.4
	l0,0c-0.2-0.4-0.1-0.9,0.3-1.1c0.4-0.2,0.9-0.1,1.1,0.3l0,0c0.2,0.4,0.1,0.9-0.3,1.1C412.5,382.6,412.4,382.6,412.3,382.6z
	 M422.4,379.9C422.4,379.9,422.4,379.9,422.4,379.9c-0.4,0-0.8-0.4-0.8-0.8l0-0.1c0-0.4,0.4-0.8,0.8-0.8c0.4,0,0.8,0.4,0.8,0.8
	l0,0.1C423.2,379.6,422.9,379.9,422.4,379.9z M411.5,379.9c-0.4,0-0.8-0.4-0.8-0.8l0-0.1c0-0.4,0.4-0.8,0.8-0.8c0,0,0,0,0,0
	c0.4,0,0.8,0.4,0.8,0.8l0,0C412.3,379.5,412,379.9,411.5,379.9z M421.7,377.2c-0.3,0-0.5-0.1-0.7-0.4l0,0c-0.2-0.4-0.1-0.9,0.3-1.1
	c0.4-0.2,0.9-0.1,1.1,0.3l0,0c0.2,0.4,0.1,0.9-0.3,1.1C422,377.1,421.9,377.2,421.7,377.2z M412.2,377.2c-0.1,0-0.3,0-0.4-0.1
	c-0.4-0.2-0.5-0.7-0.3-1.1l0,0c0.2-0.4,0.7-0.5,1.1-0.3c0.4,0.2,0.5,0.7,0.3,1.1l0,0C412.8,377,412.5,377.2,412.2,377.2z
	 M419.7,375.2c-0.1,0-0.3,0-0.4-0.1l0,0c-0.4-0.2-0.5-0.7-0.3-1.1c0.2-0.4,0.7-0.5,1.1-0.3l0,0c0.4,0.2,0.5,0.7,0.3,1.1
	C420.3,375,420,375.2,419.7,375.2z M414.2,375.2c-0.3,0-0.5-0.1-0.7-0.4c-0.2-0.4-0.1-0.9,0.3-1.1l0,0c0.4-0.2,0.9-0.1,1.1,0.3
	c0.2,0.4,0.1,0.9-0.3,1.1l0,0C414.5,375.1,414.4,375.2,414.2,375.2z M417,374.4L417,374.4c-0.5,0-0.8-0.4-0.8-0.8
	c0-0.4,0.4-0.8,0.8-0.8h0c0.4,0,0.8,0.4,0.8,0.8C417.8,374.1,417.4,374.4,417,374.4z"/>
<path fill="#010101" d="M450.6,393.8C450.6,393.8,450.6,393.8,450.6,393.8L450.6,393.8c-0.5,0-0.9-0.4-0.8-0.8
	c0-0.4,0.4-0.8,0.8-0.8c0,0,0,0,0,0l0,0c0.4,0,0.8,0.4,0.8,0.8C451.4,393.5,451,393.8,450.6,393.8z M453.4,393.7
	c-0.4,0-0.7-0.3-0.8-0.7c-0.1-0.4,0.2-0.8,0.7-0.9l0,0c0.4-0.1,0.8,0.2,0.9,0.7c0.1,0.4-0.2,0.8-0.7,0.9l0,0
	C453.5,393.7,453.4,393.7,453.4,393.7z M447.8,393.4c-0.1,0-0.1,0-0.2,0l0,0c-0.4-0.1-0.7-0.5-0.6-1c0.1-0.4,0.5-0.7,1-0.6l0,0
	c0.4,0.1,0.7,0.5,0.6,1C448.5,393.2,448.2,393.4,447.8,393.4z M456.1,393c-0.3,0-0.6-0.2-0.7-0.5c-0.2-0.4,0.1-0.9,0.5-1l0,0
	c0.4-0.2,0.9,0.1,1,0.5c0.2,0.4,0,0.9-0.5,1l0,0C456.3,393,456.2,393,456.1,393z M445.2,392.4c-0.1,0-0.2,0-0.4-0.1l0,0
	c-0.4-0.2-0.6-0.7-0.4-1.1c0.2-0.4,0.7-0.6,1.1-0.4l0,0c0.4,0.2,0.6,0.7,0.4,1.1C445.8,392.3,445.5,392.4,445.2,392.4z M458.7,391.7
	c-0.3,0-0.5-0.1-0.7-0.4c-0.2-0.4-0.1-0.9,0.2-1.1l0,0c0.4-0.2,0.9-0.1,1.1,0.3c0.2,0.4,0.1,0.9-0.3,1.1l0,0
	C459,391.7,458.8,391.7,458.7,391.7z M442.8,390.9c-0.2,0-0.3-0.1-0.5-0.2l0,0c-0.3-0.3-0.4-0.8-0.1-1.1c0.3-0.3,0.8-0.4,1.1-0.1
	l0,0c0.3,0.3,0.4,0.8,0.1,1.1C443.3,390.8,443,390.9,442.8,390.9z M460.9,390c-0.2,0-0.4-0.1-0.6-0.3c-0.3-0.3-0.3-0.8,0-1.1l0,0
	c0.3-0.3,0.8-0.3,1.1,0c0.3,0.3,0.3,0.8,0,1.1l0,0C461.3,389.9,461.1,390,460.9,390z M440.7,389c-0.2,0-0.4-0.1-0.6-0.3l0,0
	c-0.3-0.3-0.2-0.8,0.1-1.1c0.3-0.3,0.8-0.2,1.1,0.1l0,0c0.3,0.3,0.3,0.8-0.1,1.1C441.1,388.9,440.9,389,440.7,389z M462.7,387.9
	c-0.2,0-0.3,0-0.5-0.1c-0.4-0.3-0.4-0.7-0.2-1.1l0,0c0.3-0.4,0.7-0.5,1.1-0.2c0.4,0.3,0.5,0.7,0.2,1.1l0,0
	C463.2,387.8,463,387.9,462.7,387.9z M439.1,386.7c-0.3,0-0.6-0.1-0.7-0.4l0,0c-0.2-0.4-0.1-0.9,0.3-1.1c0.4-0.2,0.9-0.1,1.1,0.3
	l0,0c0.2,0.4,0.1,0.9-0.3,1.1C439.4,386.6,439.2,386.7,439.1,386.7z M464.1,385.4c-0.1,0-0.2,0-0.3-0.1c-0.4-0.2-0.6-0.6-0.4-1l0,0
	c0.2-0.4,0.6-0.6,1-0.4c0.4,0.2,0.6,0.6,0.4,1l0,0C464.7,385.2,464.4,385.4,464.1,385.4z M438,384.1c-0.3,0-0.7-0.2-0.8-0.6l0,0
	c-0.1-0.4,0.1-0.9,0.5-1c0.4-0.1,0.9,0.1,1,0.5l0,0c0.1,0.4-0.1,0.9-0.5,1C438.2,384.1,438.1,384.1,438,384.1z M465,382.7
	c-0.1,0-0.1,0-0.2,0c-0.4-0.1-0.7-0.5-0.6-0.9l0,0c0.1-0.4,0.5-0.7,0.9-0.6c0.4,0.1,0.7,0.5,0.6,0.9l0,0
	C465.7,382.5,465.3,382.7,465,382.7z M437.4,381.3c-0.4,0-0.7-0.3-0.8-0.7l0,0c0-0.4,0.3-0.8,0.7-0.9c0.4,0,0.8,0.3,0.9,0.7l0,0
	C438.3,380.9,438,381.3,437.4,381.3C437.5,381.3,437.5,381.3,437.4,381.3z M465.3,379.9c-0.4,0-0.8-0.4-0.8-0.8v-0.1
	c0-0.4,0.4-0.8,0.8-0.8c0.4,0,0.8,0.4,0.8,0.8v0.1C466.1,379.6,465.7,379.9,465.3,379.9z M437.4,378.5
	C437.4,378.5,437.4,378.5,437.4,378.5c-0.5,0-0.8-0.4-0.8-0.9l0,0c0-0.4,0.4-0.8,0.9-0.7c0.4,0,0.8,0.4,0.7,0.9l0,0
	C438.2,378.2,437.8,378.5,437.4,378.5z M465,377.1c-0.4,0-0.7-0.3-0.8-0.6l0,0c-0.1-0.4,0.2-0.9,0.6-0.9c0.4-0.1,0.9,0.2,0.9,0.6
	l0,0c0.1,0.4-0.2,0.9-0.6,0.9C465.1,377.1,465,377.1,465,377.1z M438,375.7c-0.1,0-0.2,0-0.2,0c-0.4-0.1-0.7-0.6-0.5-1l0,0
	c0.1-0.4,0.6-0.7,1-0.5c0.4,0.1,0.7,0.6,0.5,1l0,0C438.6,375.5,438.3,375.7,438,375.7z M464.1,374.4c-0.3,0-0.6-0.2-0.7-0.5l0,0
	c-0.2-0.4,0-0.9,0.4-1c0.4-0.2,0.9,0,1,0.4l0,0c0.2,0.4,0,0.9-0.4,1C464.4,374.4,464.2,374.4,464.1,374.4z M439.1,373.1
	c-0.1,0-0.3,0-0.4-0.1c-0.4-0.2-0.5-0.7-0.3-1.1l0,0c0.2-0.4,0.7-0.5,1.1-0.3c0.4,0.2,0.5,0.7,0.3,1.1l0,0
	C439.7,373,439.4,373.1,439.1,373.1z M462.8,371.9c-0.2,0-0.5-0.1-0.7-0.3l0,0c-0.3-0.4-0.2-0.9,0.2-1.1c0.4-0.3,0.9-0.2,1.1,0.2
	l0,0c0.3,0.4,0.2,0.9-0.2,1.1C463.1,371.9,462.9,371.9,462.8,371.9z M440.7,370.8c-0.2,0-0.4-0.1-0.5-0.2c-0.3-0.3-0.4-0.8-0.1-1.1
	l0,0c0.3-0.3,0.8-0.4,1.1-0.1c0.3,0.3,0.4,0.8,0.1,1.1l0,0C441.2,370.7,440.9,370.8,440.7,370.8z M460.9,369.8
	c-0.2,0-0.4-0.1-0.5-0.2l0,0c-0.3-0.3-0.3-0.8,0-1.1c0.3-0.3,0.8-0.3,1.1,0l0,0l0,0c0.3,0.3,0.3,0.8,0,1.1
	C461.4,369.7,461.1,369.8,460.9,369.8z M442.8,368.9c-0.2,0-0.5-0.1-0.6-0.3c-0.3-0.3-0.2-0.8,0.1-1.1l0,0c0.3-0.3,0.8-0.2,1.1,0.1
	c0.3,0.3,0.2,0.8-0.1,1.1l0,0C443.1,368.8,442.9,368.9,442.8,368.9z M458.7,368.1c-0.1,0-0.3,0-0.4-0.1l0,0
	c-0.4-0.2-0.5-0.7-0.3-1.1c0.2-0.4,0.7-0.5,1.1-0.3l0,0c0.4,0.2,0.5,0.7,0.3,1.1C459.2,367.9,459,368.1,458.7,368.1z M445.1,367.4
	c-0.3,0-0.6-0.2-0.7-0.4c-0.2-0.4,0-0.9,0.4-1.1l0,0c0.4-0.2,0.9,0,1.1,0.4c0.2,0.4,0,0.9-0.4,1.1l0,0l0,0
	C445.4,367.3,445.3,367.4,445.1,367.4z M456.2,366.8c-0.1,0-0.2,0-0.3,0l0,0c-0.4-0.2-0.6-0.6-0.5-1c0.2-0.4,0.6-0.6,1-0.5l0,0
	c0.4,0.2,0.6,0.6,0.5,1C456.8,366.6,456.5,366.8,456.2,366.8z M447.8,366.4c-0.4,0-0.7-0.2-0.8-0.6c-0.1-0.4,0.1-0.9,0.6-1l0,0
	c0.4-0.1,0.9,0.1,1,0.6c0.1,0.4-0.1,0.9-0.6,1l0,0C447.9,366.4,447.9,366.4,447.8,366.4z M453.4,366.1c0,0-0.1,0-0.1,0l0,0
	c-0.4-0.1-0.7-0.5-0.7-0.9c0.1-0.4,0.5-0.7,0.9-0.7l0,0c0.4,0.1,0.7,0.5,0.7,0.9C454.2,365.8,453.8,366.1,453.4,366.1z M450.6,366
	c-0.4,0-0.8-0.3-0.8-0.8c0-0.4,0.3-0.8,0.8-0.8l0,0c0.4,0,0.8,0.3,0.8,0.8C451.4,365.6,451.1,365.9,450.6,366L450.6,366
	C450.6,366,450.6,366,450.6,366z M452.7,389.5c-0.4,0-0.7-0.3-0.8-0.7c-0.1-0.4,0.2-0.8,0.7-0.9l0,0c0.4-0.1,0.8,0.2,0.9,0.7
	c0.1,0.4-0.2,0.8-0.7,0.9l0,0C452.7,389.5,452.7,389.5,452.7,389.5z M449.9,389.5c0,0-0.1,0-0.1,0l0,0c-0.4-0.1-0.7-0.5-0.7-0.9
	c0.1-0.4,0.5-0.7,0.9-0.7l0,0c0.4,0.1,0.7,0.5,0.7,0.9C450.7,389.2,450.3,389.5,449.9,389.5z M455.3,388.8c-0.3,0-0.6-0.2-0.7-0.5
	c-0.2-0.4,0-0.9,0.4-1.1l0,0c0.4-0.2,0.9,0,1.1,0.4c0.2,0.4,0,0.9-0.4,1.1l0,0C455.5,388.7,455.4,388.8,455.3,388.8z M447.3,388.8
	c-0.1,0-0.2,0-0.3-0.1l0,0c-0.4-0.2-0.6-0.7-0.4-1.1c0.2-0.4,0.7-0.6,1.1-0.4l0,0c0.4,0.2,0.6,0.7,0.4,1.1
	C447.9,388.6,447.6,388.8,447.3,388.8z M457.7,387.3c-0.2,0-0.4-0.1-0.6-0.3c-0.3-0.3-0.3-0.8,0.1-1.1l0,0c0.3-0.3,0.8-0.2,1.1,0.1
	c0.3,0.3,0.2,0.8-0.1,1.1l0,0C458,387.2,457.9,387.3,457.7,387.3z M444.9,387.3c-0.2,0-0.4-0.1-0.5-0.2l0,0
	c-0.3-0.3-0.4-0.8-0.1-1.1c0.3-0.3,0.8-0.4,1.1-0.1l0,0c0.3,0.3,0.4,0.8,0.1,1.1C445.4,387.2,445.2,387.3,444.9,387.3z M459.5,385.2
	c-0.1,0-0.3,0-0.4-0.1c-0.4-0.2-0.5-0.7-0.2-1.1l0,0c0.2-0.4,0.7-0.5,1.1-0.2c0.4,0.2,0.5,0.7,0.2,1.1l0,0
	C460,385.1,459.7,385.2,459.5,385.2z M443.1,385.2c-0.3,0-0.5-0.1-0.7-0.4l0,0c-0.2-0.4-0.1-0.9,0.2-1.1c0.4-0.2,0.9-0.1,1.1,0.2
	l0,0c0.2,0.4,0.1,0.9-0.2,1.1C443.4,385.1,443.3,385.2,443.1,385.2z M460.7,382.7c-0.1,0-0.1,0-0.2,0c-0.4-0.1-0.7-0.6-0.5-1l0,0
	c0.1-0.4,0.6-0.7,1-0.5c0.4,0.1,0.7,0.6,0.5,1l0,0C461.3,382.4,461,382.7,460.7,382.7z M442,382.6c-0.3,0-0.7-0.2-0.8-0.6l0,0
	c-0.1-0.4,0.1-0.9,0.6-1c0.4-0.1,0.9,0.1,1,0.6l0,0c0.1,0.4-0.1,0.9-0.5,1C442.1,382.6,442,382.6,442,382.6z M461.1,379.9
	C461.1,379.9,461,379.9,461.1,379.9c-0.4,0-0.8-0.4-0.8-0.8l0,0c0,0,0,0,0,0c0-0.4,0.4-0.8,0.8-0.8c0.4,0,0.8,0.4,0.8,0.8l0,0.1
	C461.8,379.6,461.5,379.9,461.1,379.9z M441.6,379.9c-0.4,0-0.8-0.4-0.8-0.8v0c0-0.4,0.4-0.8,0.8-0.8c0.4,0,0.8,0.4,0.8,0.8v0
	C442.4,379.5,442,379.9,441.6,379.9z M460.7,377.2c-0.3,0-0.7-0.2-0.8-0.6l0,0c-0.1-0.4,0.1-0.9,0.5-1c0.4-0.1,0.9,0.1,1,0.5l0,0
	c0.1,0.4-0.1,0.9-0.6,1C460.8,377.1,460.7,377.2,460.7,377.2z M442,377.2c-0.1,0-0.2,0-0.2,0c-0.4-0.1-0.7-0.6-0.5-1l0,0
	c0.1-0.4,0.6-0.7,1-0.5c0.4,0.1,0.7,0.6,0.5,1l0,0C442.6,376.9,442.3,377.2,442,377.2z M459.5,374.6c-0.3,0-0.5-0.1-0.7-0.4l0,0
	c-0.2-0.4-0.1-0.9,0.2-1.1c0.4-0.2,0.9-0.1,1.1,0.2l0,0c0.2,0.4,0.1,0.9-0.2,1.1C459.8,374.6,459.7,374.6,459.5,374.6z M443.1,374.6
	c-0.1,0-0.3,0-0.4-0.1c-0.4-0.2-0.5-0.7-0.2-1.1l0,0c0.2-0.4,0.7-0.5,1.1-0.2c0.4,0.2,0.5,0.7,0.2,1.1l0,0
	C443.6,374.5,443.4,374.6,443.1,374.6z M457.7,372.5c-0.2,0-0.4-0.1-0.5-0.2l0,0c-0.3-0.3-0.4-0.8-0.1-1.1c0.3-0.3,0.8-0.4,1.1-0.1
	l0,0c0.3,0.3,0.4,0.8,0.1,1.1C458.1,372.4,457.9,372.5,457.7,372.5z M444.9,372.5c-0.2,0-0.4-0.1-0.6-0.3c-0.3-0.3-0.2-0.8,0.1-1.1
	l0,0c0.3-0.3,0.8-0.3,1.1,0.1c0.3,0.3,0.3,0.8-0.1,1.1l0,0C445.3,372.5,445.1,372.5,444.9,372.5z M455.4,371c-0.1,0-0.2,0-0.3-0.1
	l0,0c-0.4-0.2-0.6-0.7-0.4-1.1c0.2-0.4,0.7-0.6,1.1-0.4l0,0c0.4,0.2,0.6,0.7,0.4,1.1C456,370.9,455.7,371,455.4,371z M447.3,371
	c-0.3,0-0.6-0.2-0.7-0.5c-0.2-0.4,0-0.9,0.4-1.1l0,0c0.4-0.2,0.9,0,1.1,0.4c0.2,0.4,0,0.9-0.4,1.1l0,0
	C447.5,371,447.4,371,447.3,371z M452.7,370.2c0,0-0.1,0-0.1,0l0,0c-0.4-0.1-0.7-0.5-0.7-0.9c0.1-0.4,0.5-0.7,0.9-0.7l0.1,0
	c0.4,0.1,0.7,0.5,0.7,0.9C453.4,370,453.1,370.2,452.7,370.2z M449.9,370.2c-0.4,0-0.7-0.3-0.8-0.7c-0.1-0.4,0.2-0.8,0.7-0.9l0,0
	c0.4-0.1,0.8,0.2,0.9,0.7c0.1,0.4-0.2,0.8-0.7,0.9l0,0C450,370.2,449.9,370.2,449.9,370.2z M451.3,385.3c-3.5,0-6.3-2.8-6.3-6.3
	c0-3.5,2.8-6.3,6.3-6.3c3.5,0,6.3,2.8,6.3,6.3C457.6,382.5,454.8,385.3,451.3,385.3z M451.3,374.4c-2.6,0-4.7,2.1-4.7,4.7
	c0,2.6,2.1,4.7,4.7,4.7s4.7-2.1,4.7-4.7C456,376.5,453.9,374.4,451.3,374.4z"/>
<path fill="#010101" d="M305.9,393.8c-8.1,0-14.7-6.6-14.7-14.7c0-8.1,6.6-14.7,14.7-14.7c8.1,0,14.7,6.6,14.7,14.7
	C320.6,387.2,314,393.8,305.9,393.8z M305.9,365.9c-7.3,0-13.2,5.9-13.2,13.2c0,7.3,5.9,13.2,13.2,13.2s13.2-5.9,13.2-13.2
	C319,371.8,313.1,365.9,305.9,365.9z M305.9,385.7L305.9,385.7c-0.5,0-0.8-0.4-0.8-0.8c0-0.4,0.4-0.8,0.8-0.8c0,0,0,0,0,0l0,0
	c0.4,0,0.8,0.4,0.8,0.8C306.7,385.4,306.3,385.7,305.9,385.7z M310,384c-0.2,0-0.4-0.1-0.6-0.2c-0.3-0.3-0.3-0.8,0-1.1l0,0
	c0.3-0.3,0.8-0.3,1.1,0c0.3,0.3,0.3,0.8,0,1.1l0,0C310.4,384,310.2,384,310,384z M301.8,384c-0.2,0-0.4-0.1-0.6-0.2l0,0
	c-0.3-0.3-0.3-0.8,0-1.1c0.3-0.3,0.8-0.3,1.1,0l0,0c0.3,0.3,0.3,0.8,0,1.1C302.2,384,302,384,301.8,384z M311.7,379.9
	C311.7,379.9,311.7,379.9,311.7,379.9c-0.4,0-0.8-0.4-0.8-0.8l0,0l0,0c0-0.4,0.4-0.8,0.8-0.8c0.4,0,0.8,0.4,0.8,0.8l0,0l0,0.1
	C312.5,379.6,312.2,379.9,311.7,379.9z M300,379.9c-0.4,0-0.8-0.4-0.8-0.8v0c0-0.4,0.4-0.8,0.8-0.8c0.4,0,0.8,0.4,0.8,0.8v0
	C300.8,379.5,300.5,379.9,300,379.9z M310,375.8c-0.2,0-0.4-0.1-0.6-0.2l0,0c-0.3-0.3-0.3-0.8,0-1.1c0.3-0.3,0.8-0.3,1.1,0l0,0
	c0.3,0.3,0.3,0.8,0,1.1C310.4,375.7,310.2,375.8,310,375.8z M301.7,375.8c-0.2,0-0.4-0.1-0.6-0.2c-0.3-0.3-0.3-0.8,0-1.1l0,0
	c0.3-0.3,0.8-0.3,1.1,0c0.3,0.3,0.3,0.8,0,1.1l0,0C302.1,375.7,301.9,375.8,301.7,375.8z M305.9,374L305.9,374
	c-0.5,0-0.8-0.4-0.8-0.8c0-0.4,0.4-0.8,0.8-0.8h0c0.4,0,0.8,0.4,0.8,0.8C306.7,373.7,306.3,374,305.9,374z"/>
<path fill="#010101" d="M342.8,384.3c-3.5,0-6.3-2.8-6.3-6.3c0-3.5,2.8-6.3,6.3-6.3c3.5,0,6.3,2.8,6.3,6.3
	C349.1,381.5,346.3,384.3,342.8,384.3z M342.8,373.4c-2.6,0-4.7,2.1-4.7,4.7s2.1,4.7,4.7,4.7c2.6,0,4.7-2.1,4.7-4.7
	S345.4,373.4,342.8,373.4z M342.8,392.9L342.8,392.9c-0.5,0-0.8-0.4-0.8-0.8c0-0.4,0.4-0.8,0.8-0.8h0c0.4,0,0.8,0.4,0.8,0.8
	C343.6,392.5,343.3,392.9,342.8,392.9z M348.1,391.8c-0.3,0-0.6-0.2-0.7-0.5c-0.2-0.4,0-0.9,0.4-1l0,0c0.4-0.2,0.9,0,1,0.4
	c0.2,0.4,0,0.9-0.4,1l0,0C348.3,391.8,348.2,391.8,348.1,391.8z M337.5,391.8c-0.1,0-0.2,0-0.3-0.1l0,0c-0.4-0.2-0.6-0.6-0.4-1
	c0.2-0.4,0.6-0.6,1-0.4l0,0c0.4,0.2,0.6,0.6,0.4,1C338.1,391.6,337.8,391.8,337.5,391.8z M352.7,388.8c-0.2,0-0.4-0.1-0.6-0.2
	c-0.3-0.3-0.3-0.8,0-1.1l0,0c0.3-0.3,0.8-0.3,1.1,0c0.3,0.3,0.3,0.8,0,1.1l0,0C353.1,388.7,352.9,388.8,352.7,388.8z M332.9,388.8
	c-0.2,0-0.4-0.1-0.6-0.2l0,0c-0.3-0.3-0.3-0.8,0-1.1c0.3-0.3,0.8-0.3,1.1,0l0,0c0.3,0.3,0.3,0.8,0,1.1
	C333.3,388.7,333.1,388.8,332.9,388.8z M355.7,384.3c-0.1,0-0.2,0-0.3-0.1c-0.4-0.2-0.6-0.6-0.4-1l0,0c0.2-0.4,0.6-0.6,1-0.4
	c0.4,0.2,0.6,0.6,0.4,1l0,0C356.3,384.1,356,384.3,355.7,384.3z M329.9,384.2c-0.3,0-0.6-0.2-0.7-0.5l0,0c-0.2-0.4,0-0.9,0.4-1
	c0.4-0.2,0.9,0,1,0.4l0,0c0.2,0.4,0,0.9-0.4,1C330.1,384.2,330,384.2,329.9,384.2z M356.8,378.9c-0.4,0-0.8-0.4-0.8-0.8V378
	c0-0.4,0.4-0.8,0.8-0.8c0.4,0,0.8,0.4,0.8,0.8v0.1C357.6,378.6,357.2,378.9,356.8,378.9z M328.8,378.9c-0.4,0-0.8-0.4-0.8-0.8v0
	c0-0.4,0.4-0.8,0.8-0.8s0.8,0.4,0.8,0.8v0C329.6,378.5,329.2,378.9,328.8,378.9z M329.9,373.5c-0.1,0-0.2,0-0.3-0.1
	c-0.4-0.2-0.6-0.6-0.4-1l0,0c0.2-0.4,0.6-0.6,1-0.4c0.4,0.2,0.6,0.6,0.4,1l0,0C330.5,373.3,330.2,373.5,329.9,373.5z M355.7,373.5
	c-0.3,0-0.6-0.2-0.7-0.5l0,0c-0.2-0.4,0-0.9,0.4-1c0.4-0.2,0.9,0,1,0.4l0,0c0.2,0.4,0,0.9-0.4,1C356,373.5,355.9,373.5,355.7,373.5z
	 M332.9,369c-0.2,0-0.4-0.1-0.6-0.2c-0.3-0.3-0.3-0.8,0-1.1l0,0c0.3-0.3,0.8-0.3,1.1,0c0.3,0.3,0.3,0.8,0,1.1l0,0
	C333.3,368.9,333.1,369,332.9,369z M352.7,369c-0.2,0-0.4-0.1-0.6-0.2l0,0c-0.3-0.3-0.3-0.8,0-1.1c0.3-0.3,0.8-0.3,1.1,0l0,0
	c0.3,0.3,0.3,0.8,0,1.1C353.1,368.9,352.9,369,352.7,369z M337.4,365.9c-0.3,0-0.6-0.2-0.7-0.5c-0.2-0.4,0-0.9,0.4-1l0,0
	c0.4-0.2,0.9,0,1,0.4c0.2,0.4,0,0.9-0.4,1l0,0C337.6,365.9,337.5,365.9,337.4,365.9z M348.2,365.9c-0.1,0-0.2,0-0.3-0.1l0,0
	c-0.4-0.2-0.6-0.6-0.4-1c0.2-0.4,0.6-0.6,1-0.4l0,0c0.4,0.2,0.6,0.6,0.4,1C348.8,365.8,348.5,365.9,348.2,365.9z M342.8,364.9
	L342.8,364.9C342.8,364.9,342.8,364.9,342.8,364.9c-0.5,0-0.8-0.4-0.8-0.8c0-0.4,0.4-0.8,0.8-0.8l0,0c0.4,0,0.8,0.4,0.8,0.8
	C343.6,364.5,343.3,364.9,342.8,364.9z"/>
<path fill="#010101" d="M558.3,182.4c-8.6,0-15.6,7-15.6,15.6c0,8.6,7,15.6,15.6,15.6c8.6,0,15.6-7,15.6-15.6
	C573.9,189.4,566.9,182.4,558.3,182.4z M558.3,212.1c-7.8,0-14.1-6.3-14.1-14.1c0-7.8,6.3-14.1,14.1-14.1c7.8,0,14.1,6.3,14.1,14.1
	C572.4,205.8,566.1,212.1,558.3,212.1z M564.5,194.7v2.6h-12.4v-2.7l-5.9,3.4l5.9,3.4v-2.6h12.4v2.7l5.9-3.4L564.5,194.7z"/>
<path fill="#010101" d="M578.6,198c0,8.6,7,15.6,15.6,15.6c8.6,0,15.6-7,15.6-15.6c0-8.6-7-15.6-15.6-15.6
	C585.7,182.4,578.6,189.4,578.6,198z M608.4,198c0,7.8-6.3,14.1-14.1,14.1c-7.8,0-14.1-6.3-14.1-14.1c0-7.8,6.3-14.1,14.1-14.1
	C602.1,183.9,608.4,190.2,608.4,198z M591,191.8h2.6v12.4h-2.7l3.4,5.9l3.4-5.9h-2.6v-12.4h2.7l-3.4-5.9L591,191.8z"/>
<path fill="#010101" d="M522.3,182.4c-8.6,0-15.6,7-15.6,15.6c0,8.6,7,15.6,15.6,15.6s15.6-7,15.6-15.6
	C537.9,189.4,530.9,182.4,522.3,182.4z M522.3,212.1c-7.8,0-14.1-6.3-14.1-14.1c0-7.8,6.3-14.1,14.1-14.1c7.8,0,14.1,6.3,14.1,14.1
	C536.4,205.8,530.1,212.1,522.3,212.1z M527,190.2l-0.7,1.2c2.2,1.4,3.7,3.8,3.7,6.6c0,4.3-3.5,7.7-7.7,7.7c-4.3,0-7.7-3.5-7.7-7.7
	c0-1.6,0.5-3.1,1.4-4.4l2.4,1.4v-6.8l-5.9,3.4l2.3,1.3c-1,1.5-1.6,3.2-1.6,5.1c0,5,4.1,9.1,9.1,9.1c5,0,9.1-4.1,9.1-9.1
	C531.4,194.7,529.7,191.8,527,190.2z"/>
<path fill="#010101" d="M486.3,290.4c-8.6,0-15.6,7-15.6,15.6c0,8.6,7,15.6,15.6,15.6c8.6,0,15.6-7,15.6-15.6
	C501.9,297.4,494.9,290.4,486.3,290.4z M486.3,320.1c-7.8,0-14.1-6.3-14.1-14.1c0-7.8,6.3-14.1,14.1-14.1c7.8,0,14.1,6.3,14.1,14.1
	C500.4,313.8,494.1,320.1,486.3,320.1z M480.6,300.7c1.8-0.2,3.7,0.6,5.4,2.4c1.8,1.8,3.9,2.8,5.9,2.8c0.2,0,0.4,0,0.6,0
	c2.3-0.2,4.3-1.6,5.9-3.9l-1.2-0.8c-1.3,2-3,3.1-4.9,3.3c-1.8,0.2-3.7-0.7-5.4-2.4c-1.9-2-4.3-3-6.5-2.8c-2.2,0.2-4.3,1.6-5.9,3.9
	l1.2,0.8C477,302,478.7,300.9,480.6,300.7z M492.3,311c-1.8,0.2-3.7-0.7-5.4-2.4c-1.9-2-4.3-3-6.5-2.8c-2.2,0.2-4.3,1.6-5.9,3.9
	l1.2,0.8c1.3-2,3-3.1,4.8-3.3c1.8-0.2,3.7,0.6,5.4,2.4c1.8,1.8,3.9,2.8,5.9,2.8c0.2,0,0.4,0,0.6,0c2.3-0.2,4.3-1.6,5.9-3.9l-1.2-0.8
	C495.8,309.7,494.1,310.8,492.3,311z"/>
<path fill="#FFFFFF" d="M117.4,114c2.3-1.5,5.1-2.4,8.1-2.4c8.1,0,14.8,6.6,14.8,14.8c0,3-0.9,5.8-2.4,8.1L117.4,114z M113.2,118.2
	c-1.5,2.3-2.4,5.1-2.4,8.1c0,8.1,6.6,14.8,14.8,14.8c3,0,5.8-0.9,8.1-2.4L113.2,118.2z"/>
</svg>
